<?xml version="1.0" encoding="UTF-8" standalone="no"?>
<svg
   width="113"
   height="99"
   viewBox="0 0 113 99"
   fill="none"
   version="1.1"
   id="svg1"
   xmlns="http://www.w3.org/2000/svg"
   xmlns:svg="http://www.w3.org/2000/svg">
  <defs
     id="defs1" />
  <path
     d="m 103.258,47.8461 c 0.547,-1.0558 1.085,-1.5248 1.612,-1.4072 0.492,0.1019 0.614,0.5831 0.363,1.4435 l -0.279,0.7432 c -0.428,0.8409 -0.87,1.6444 -1.325,2.4103 -0.431,0.7566 -0.992,1.661 -1.683,2.7131 -0.7,1.0271 -1.426,1.9074 -2.1783,2.6409 -0.7521,0.7335 -1.5616,1.3887 -2.4286,1.9656 -0.8762,0.552 -1.7949,0.8354 -2.7563,0.8501 -0.9706,-0.0102 -1.9338,-0.3076 -2.8896,-0.892 -0.9308,-0.5938 -1.6064,-1.3815 -2.0268,-2.3633 -0.4204,-0.9817 -0.5987,-2.039 -0.5347,-3.1717 0.064,-1.1327 0.2229,-2.201 0.4767,-3.205 0.2696,-1.0382 0.6327,-2.0542 1.0893,-3.0479 0.6299,-1.3707 1.4654,-2.647 2.5065,-3.8287 1.6274,-1.8254 2.7244,-1.8193 3.2911,0.0182 0.4464,1.5125 0.3434,3.3847 -0.3087,5.6168 -0.6614,2.207 -1.6057,4.1491 -2.833,5.8264 0.4325,0.3232 0.8919,0.5655 1.3781,0.7266 2.9304,0.8486 5.7723,-1.4977 8.5263,-7.0389 z m -11.3614,0.8802 c -0.3391,1.2346 -0.2817,2.4645 0.172,3.6899 0.2918,-0.364 0.6739,-1.06 1.1463,-2.088 0.4724,-1.028 0.8059,-2.0473 1.0004,-3.0577 0.2103,-1.0447 0.102,-1.6444 -0.325,-1.7991 -0.2899,-0.0917 -0.5872,0.1037 -0.8919,0.5862 -0.3048,0.4825 -0.5377,0.9669 -0.6989,1.4531 -0.1704,0.4612 -0.3048,0.8664 -0.4029,1.2156 z"
     fill="#b50015"
     id="path5"
     style="display:inline" />
  <path
     d="m 89.7926,47.9698 c 0.1417,-0.3084 0.3552,-0.231 0.6405,0.2321 0.4278,0.6946 0.4908,1.3254 0.1888,1.8922 -0.3557,0.7288 -0.7795,1.3123 -1.2713,1.7504 -0.4668,0.4288 -0.9595,0.7107 -1.4782,0.8459 -0.5187,0.1352 -1.0322,0.169 -1.5407,0.1014 -0.5085,-0.0677 -1.0368,-0.2275 -1.5851,-0.4794 -0.0139,0.3464 -0.0454,0.7988 -0.0945,1.3573 -0.0492,0.5585 -0.0881,0.9141 -0.1168,1.0669 -0.0037,0.1436 -0.0158,0.4182 -0.0362,0.8239 -0.0269,0.4649 -0.0486,0.8284 -0.0653,1.0905 0.0083,0.2529 -0.02,0.6757 -0.0848,1.2684 -0.0492,0.5585 -0.0932,1.0155 -0.1321,1.3712 -0.0482,0.3306 -0.1126,0.8095 -0.1932,1.4365 -0.0806,0.627 -0.1746,1.1026 -0.2821,1.4267 -0.0824,0.3149 -0.1903,0.753 -0.3237,1.3143 -0.1427,0.5362 -0.2909,0.9039 -0.4447,1.103 -0.1537,0.1991 -0.3468,0.4839 -0.5793,0.8544 -0.2075,0.3612 -0.4377,0.5459 -0.6905,0.5542 -0.2371,-0.0259 -0.5103,0.0042 -0.8197,0.0903 -0.3214,-0.0232 -0.6502,-0.1431 -0.9863,-0.3599 -0.3112,-0.226 -0.5803,-0.4534 -0.8072,-0.6821 -0.2019,-0.2381 -0.4408,-0.5762 -0.7168,-1.0142 -0.2509,-0.4474 -0.4306,-0.779 -0.5389,-0.9948 -0.1177,-0.2408 -0.2941,-0.602 -0.5293,-1.0836 -0.2195,-0.5159 -0.3385,-0.7989 -0.357,-0.8489 -0.0898,-0.1658 -0.2121,-0.4191 -0.3667,-0.7599 -0.1389,-0.3751 -0.2857,-0.7331 -0.4403,-1.074 -0.1297,-0.3501 -0.3075,-0.7534 -0.5335,-1.21 -0.2102,-0.4909 -0.4144,-0.9271 -0.6125,-1.3087 -0.1982,-0.3816 -0.426,-0.7665 -0.6835,-1.1546 -0.2417,-0.4223 -0.476,-0.7479 -0.7029,-0.9766 -0.2362,-0.2538 -0.4881,-0.4733 -0.7557,-0.6586 -0.2677,-0.1852 -0.5187,-0.2487 -0.753,-0.1904 -0.2343,0.0584 -0.4876,0.1806 -0.7599,0.3668 -0.1473,0.1398 -0.3613,0.1764 -0.6419,0.1097 -0.3149,-0.0825 -0.6108,-0.2288 -0.8877,-0.4391 -0.3112,-0.226 -0.602,-0.4737 -0.8724,-0.7433 -0.2704,-0.2695 -0.4473,-0.5168 -0.5307,-0.7419 -0.0926,-0.25 -0.0949,-0.4482 -0.0069,-0.5946 0.4604,-0.3695 0.9031,-0.633 1.3282,-0.7904 0.4001,-0.1481 0.8215,-0.162 1.2642,-0.0416 0.4677,0.1112 0.8993,0.2784 1.2948,0.5016 0.4112,0.189 0.8127,0.4668 1.2044,0.8336 0.4168,0.3575 0.7743,0.7086 1.0725,1.0531 0.3232,0.3353 0.626,0.6924 0.9085,1.0712 1.2567,1.7811 2.3226,3.6613 3.1978,5.6406 0.0926,0.25 0.2518,0.6034 0.4778,1.06 0.226,0.4566 0.3806,0.7974 0.464,1.0225 0.6243,-1.5392 0.9508,-2.3853 0.9795,-2.5381 0.3919,-1.9366 0.6777,-3.8908 0.8575,-5.8626 0.0297,-0.3807 0.0121,-1.0424 -0.0527,-1.9853 -0.0397,-0.9521 -0.0416,-1.6481 -0.0054,-2.088 -0.4408,-0.5761 -0.7288,-1.1235 -0.864,-1.6422 -0.1195,-0.5529 -0.0102,-0.9488 0.3279,-1.1878 0.3538,-0.2732 0.766,-0.3121 1.2364,-0.1166 0.4955,0.1862 0.9266,0.4673 1.2934,0.8433 0.3667,0.3761 0.6446,0.7424 0.8335,1.099 0.2259,0.4566 0.3815,0.9535 0.4667,1.4907 0.8799,0.0723 1.8574,-0.0907 2.9327,-0.4889 1.1004,-0.4074 1.8251,-0.946 2.1743,-1.6156 z"
     fill="#b50015"
     id="path2"
     style="display:inline" />
  <path
     d="m 72.2633,51.5606 c 0.4826,-0.4631 0.773,-0.4853 0.8711,-0.0667 0.138,0.603 -0.0279,1.4606 -0.4975,2.5729 -0.1889,0.4112 -0.3696,0.6914 -0.5418,0.8405 -1.9053,1.843 -3.9286,3.559 -6.07,5.1482 1.5346,1.7636 2.1694,3.7465 1.9044,5.9489 -0.24,2.1932 -1.2173,4.1617 -2.9317,5.9056 -0.8901,0.8984 -1.8913,1.4966 -3.0037,1.7948 -1.1216,0.2731 -2.2172,0.3092 -3.287,0.1082 -1.0697,-0.2011 -2.0884,-0.6485 -3.0563,-1.3422 -0.977,-0.7188 -1.7614,-1.6084 -2.3532,-2.6689 -0.8335,-1.4829 -1.1043,-3.1741 -0.8124,-5.0736 0.2918,-1.8996 0.8925,-3.7714 1.8021,-5.6153 0.0723,-0.1121 0.2098,-0.163 0.4126,-0.1528 0.2891,-1.2161 0.9236,-2.1904 1.9035,-2.9229 0.4881,-0.2945 1.0443,-0.4436 1.6685,-0.4473 0.6243,-0.0036 1.2698,0.127 1.9366,0.3919 0.6576,0.2399 1.2962,0.5437 1.9158,0.9115 0.6195,0.3677 1.228,0.7822 1.8254,1.2435 3.0351,-1.8633 5.8064,-4.0554 8.3136,-6.5763 z m -9.8238,7.2208 c -0.526,-0.3455 -1.0965,-0.5039 -1.7115,-0.4752 -0.6243,0.0036 -1.1883,0.1699 -1.6922,0.4986 1.1373,0.4604 2.2719,0.4526 3.4037,-0.0234 z m -0.748,11.1112 c 1.1309,-1.0159 2.046,-2.3074 2.7454,-3.8745 0.7243,-1.5763 0.9082,-3.0377 0.5517,-4.3844 -0.0833,-0.2251 -0.1791,-0.4455 -0.2875,-0.6613 -3.502,2.2921 -6.1666,2.8522 -7.9939,1.6805 -0.5798,1.3522 -0.9633,2.7739 -1.1505,4.265 -0.0871,0.6863 -0.1348,1.2869 -0.1432,1.8019 0.0074,0.4806 0.1426,0.9993 0.4056,1.5559 0.263,0.5567 0.6797,0.9142 1.2502,1.0726 1.7903,0.3039 3.331,-0.1813 4.6222,-1.4557 z"
     fill="#b50015"
     id="path1"
     style="display:inline" />
  <path
     d="m 79.4606,71.289 c 0.4918,-0.4381 0.7868,-0.4478 0.885,-0.0292 0.1472,0.628 -0.0265,1.5027 -0.5211,2.6243 -0.1732,0.377 -0.346,0.64 -0.5183,0.7891 -1.971,1.8958 -4.1689,3.5627 -6.5937,5.001 -2.4247,1.4382 -4.9093,2.5999 -7.4535,3.4852 -2.51,0.901 -5.1862,1.6219 -8.0286,2.1626 -2.8175,0.5315 -5.5905,0.8759 -8.319,1.0332 -2.7285,0.1573 -5.5251,0.1692 -8.3897,0.0356 -2.7167,4.1056 -6.6326,5.7405 -11.7478,4.9049 -0.9169,-0.1724 -1.8537,-0.4368 -2.8105,-0.7935 -0.9317,-0.3658 -1.8629,-0.8457 -2.7937,-1.4394 -0.9057,-0.603 -1.6332,-1.3004 -2.1824,-2.0923 -0.5334,-0.8262 -0.851,-1.7607 -0.9529,-2.8036 -0.1731,-1.1586 0.1011,-2.1844 0.8226,-3.0772 0.7373,-0.927 1.6992,-1.4396 2.8856,-1.5377 0.6057,-0.0537 1.3467,0.0274 2.2228,0.2432 0.9012,0.2066 1.8505,0.4665 2.8479,0.7796 1.0225,0.3038 1.7755,0.4942 2.259,0.5711 2.9192,0.5114 5.8672,0.87 8.8439,1.0757 0.0343,0.0158 0.0685,0.0315 0.1028,0.0473 0.05,-0.0185 0.0875,-0.0324 0.1125,-0.0417 0.3094,-0.8539 0.5628,-1.7439 0.7601,-2.6701 0.5068,-2.5479 0.9033,-5.2398 1.1897,-8.0757 0.302,-2.8702 0.5018,-5.5176 0.5992,-7.9423 0.1131,-2.459 0.1077,-5.3149 -0.0162,-8.5676 -0.1332,-3.2777 -0.2688,-5.9859 -0.4066,-8.1244 -0.1379,-2.1385 -0.3962,-4.9861 -0.7748,-8.5426 -0.3786,-3.5565 -0.6767,-6.2044 -0.8942,-7.9438 -0.2269,-1.7644 -0.5777,-4.4781 -1.0526,-8.1411 -0.0787,-0.5965 0.2492,-1.4004 0.9837,-2.4117 0.7595,-1.0206 1.2476,-1.3151 1.4643,-0.8835 0.0278,0.075 0.0477,0.1672 0.0597,0.2765 1.0036,7.9318 1.7565,16.454 2.259,25.5666 0.0351,0.5557 0.1351,2.0543 0.2998,4.4957 0.1647,2.4414 0.2952,4.4831 0.3914,6.1252 0.0963,1.6421 0.1605,3.8506 0.1928,6.6254 0.023,2.7498 -0.0448,5.1778 -0.2033,7.2839 -0.1335,2.0968 -0.4096,4.346 -0.8283,6.7475 -0.3938,2.3923 -0.9237,4.4938 -1.5897,6.3044 3.7167,0.1308 7.433,-0.0084 11.1488,-0.4176 C 64.759,80.6573 73.3411,77.1096 79.4606,71.289 Z M 29.3673,87.0237 c 3.6509,0.9514 6.3924,0.6756 8.2245,-0.8275 -1.9033,-0.1483 -3.7112,-0.3461 -5.4237,-0.5935 -2.0338,-0.2706 -4.058,-0.63 -6.0724,-1.0784 -0.212,-0.0352 -0.5177,-0.0927 -0.9169,-0.1723 -0.3834,-0.114 -0.6219,-0.1821 -0.7154,-0.2043 1.3706,1.3977 3.0053,2.3563 4.9039,2.876 z"
     fill="#b50015"
     id="path4"
     style="display:inline" />
</svg>
