<svg width="32" height="32" viewBox="0 0 32 32" fill="none" xmlns="http://www.w3.org/2000/svg">
<path d="M18.3949 18.8203C18.3949 23.0706 14.9488 26.5173 10.6975 26.5173C6.44834 26.5173 3 23.0706 3 18.8203C3 14.569 6.44834 11.1223 10.6975 11.1223C14.9488 11.1223 18.3949 14.5684 18.3949 18.8203Z" stroke="#221F1E" stroke-miterlimit="10" stroke-linecap="round" stroke-linejoin="round"/>
<path d="M29 18.8203C29 23.0706 25.5539 26.5173 21.3026 26.5173C17.0534 26.5173 13.6051 23.0706 13.6051 18.8203C13.6051 14.569 17.0534 11.1223 21.3026 11.1223C25.5539 11.1223 29 14.5684 29 18.8203Z" stroke="#221F1E" stroke-miterlimit="10" stroke-linecap="round" stroke-linejoin="round"/>
<path d="M21.3014 11.122C21.757 10.4044 24.4202 9.7633 24.4202 7.68201C24.4202 6.75389 23.6674 6 22.7388 6C22.1295 6 21.5968 6.32389 21.3014 6.8075C21.0054 6.32333 20.4726 6 19.8628 6C18.9353 6 18.1825 6.75389 18.1825 7.68201C18.1825 9.76275 20.8446 10.4038 21.3014 11.122Z" stroke="#221F1E" stroke-miterlimit="10" stroke-linecap="round" stroke-linejoin="round"/>
</svg>
