<svg width="32" height="32" viewBox="0 0 32 32" fill="none" xmlns="http://www.w3.org/2000/svg">
<path d="M15.5999 6.28276L18.1898 15.2837C18.8291 17.5036 21.1715 18.793 23.4222 18.1623C25.6729 17.5317 26.9789 15.2208 26.3401 13.001L23.7497 4" stroke="#221F1E" stroke-miterlimit="10" stroke-linecap="round" stroke-linejoin="round"/>
<path d="M23.4231 18.1624L25.6331 25.843" stroke="#221F1E" stroke-miterlimit="10" stroke-linecap="round" stroke-linejoin="round"/>
<path d="M23.2646 26.5063L28.0004 25.1797" stroke="#221F1E" stroke-miterlimit="10" stroke-linecap="round" stroke-linejoin="round"/>
<path d="M16.4785 9.33579C16.4785 9.33579 18.766 8.30275 21.6349 8.98564C23.6179 9.45767 24.7107 7.33838 24.7107 7.33838" stroke="#221F1E" stroke-miterlimit="10" stroke-linecap="round" stroke-linejoin="round"/>
<path d="M16.147 8.65471L13.8096 16.7784C13.1703 18.9982 10.8279 20.2876 8.57721 19.657C6.32651 19.0263 5.0205 16.7155 5.65929 14.4956L8.24973 5.49463" stroke="#221F1E" stroke-miterlimit="10" stroke-linecap="round" stroke-linejoin="round"/>
<path d="M8.57769 19.6575L6.36768 27.3376" stroke="#221F1E" stroke-miterlimit="10" stroke-linecap="round" stroke-linejoin="round"/>
<path d="M8.73525 28.0004L4 26.6738" stroke="#221F1E" stroke-miterlimit="10" stroke-linecap="round" stroke-linejoin="round"/>
<path d="M15.5205 10.8314C15.5205 10.8314 13.233 9.79835 10.3641 10.4812C8.38109 10.9533 7.28833 8.83398 7.28833 8.83398" stroke="#221F1E" stroke-miterlimit="10" stroke-linecap="round" stroke-linejoin="round"/>
</svg>
