<svg width="32" height="32" viewBox="0 0 32 32" fill="none" xmlns="http://www.w3.org/2000/svg">
<path d="M19.6846 15.0026C19.6846 11.4149 15.7253 8.50635 10.8423 8.50635C5.95935 8.50635 2.00012 11.4149 2.00012 15.0026C2.00012 18.3602 5.46867 21.1224 9.91641 21.4628C11.7436 24.5113 15.9882 23.7205 15.9882 23.7205C14.634 23.3138 13.9497 22.1952 13.6028 21.1709C17.1333 20.3186 19.6846 17.8813 19.6846 15.0026Z" stroke="#221F1E" stroke-miterlimit="10" stroke-linecap="round" stroke-linejoin="round"/>
<path d="M17.0103 10.1715C18.3164 8.85534 20.4312 8 22.8179 8C26.7845 8 30.0001 10.3625 30.0001 13.2767C30.0001 16.0042 27.1829 18.248 23.5697 18.5243C22.0855 21.0002 18.6378 20.358 18.6378 20.358C19.7374 20.028 20.293 19.1194 20.5749 18.2874C20.0111 18.1514 19.478 17.9652 18.9847 17.7361" stroke="#221F1E" stroke-miterlimit="10" stroke-linecap="round" stroke-linejoin="round"/>
<path d="M10.8423 17.0606C11.1957 16.5041 13.2611 16.0069 13.2611 14.3928C13.2611 13.673 12.6773 13.0884 11.9571 13.0884C11.4846 13.0884 11.0714 13.3396 10.8423 13.7146C10.6128 13.3391 10.1997 13.0884 9.72673 13.0884C9.00738 13.0884 8.42358 13.673 8.42358 14.3928C8.42358 16.0069 10.4881 16.5041 10.8423 17.0606Z" fill="#221F1E"/>
<path d="M23.7265 15.3248C24.0799 14.7683 26.1453 14.2711 26.1453 12.657C26.1453 11.9372 25.5615 11.3525 24.8412 11.3525C24.3688 11.3525 23.9556 11.6037 23.7265 11.9788C23.497 11.6033 23.0838 11.3525 22.6109 11.3525C21.8915 11.3525 21.3077 11.9372 21.3077 12.657C21.3077 14.2706 23.3722 14.7678 23.7265 15.3248Z" fill="#221F1E"/>
</svg>
