<svg width="32" height="32" viewBox="0 0 32 32" fill="none" xmlns="http://www.w3.org/2000/svg">
<path d="M24.1136 21.8896V19.0912C24.1136 17.7424 23.0816 16.6288 21.7664 16.4992V13.696C21.7664 12.2608 20.5952 11.0896 19.16 11.0896H18.6992C18.6992 11.0896 18.6848 11.0896 18.68 11.0896C18.6752 11.0896 18.6656 11.0896 18.6608 11.0896H16.1024V10.2208C16.6832 9.7456 18.8192 7.8832 18.9584 5.9968C18.9632 5.9344 18.968 5.872 18.968 5.8C18.968 4.8064 18.1616 4 17.168 4C16.5824 4 16.064 4.2784 15.7328 4.7104C15.6848 4.6432 15.632 4.5856 15.5696 4.528C15.2288 4.1872 14.7776 4 14.2928 4C13.2992 4 12.4928 4.8064 12.4928 5.8C12.4928 5.8672 12.4928 5.9344 12.5024 5.9824C12.6416 7.8784 14.7776 9.7456 15.3632 10.216V11.0848H12.3344C10.8992 11.0848 9.728 12.256 9.728 13.6912V16.4944C8.4128 16.624 7.3808 17.7376 7.3808 19.0864V21.8848C6.0512 22 5 23.1184 5 24.4768V27.6304C5 27.832 5.1632 28 5.3696 28H26.1152C26.3168 28 26.4848 27.8368 26.4848 27.6304V24.4768C26.4848 23.1184 25.4384 22 24.104 21.8848L24.1136 21.8896ZM21.5072 17.224C22.5392 17.224 23.3792 18.064 23.3792 19.096V20.3056C23.2688 20.3056 23.1536 20.3008 23.0432 20.2912C23.0144 20.2912 22.9856 20.2816 22.9568 20.2768C22.8752 20.2672 22.7936 20.2576 22.7168 20.2384C22.6736 20.2288 22.6352 20.2192 22.5968 20.2096C22.5296 20.1952 22.4624 20.1808 22.4 20.1616C22.3568 20.1472 22.3136 20.1328 22.2704 20.1184C22.208 20.0992 22.1504 20.0752 22.0928 20.0512C22.0496 20.0368 22.0064 20.0128 21.968 19.9936C21.9104 19.9696 21.8576 19.9456 21.8 19.912C21.7568 19.888 21.7184 19.864 21.6752 19.8448C21.6224 19.816 21.5696 19.7824 21.5216 19.7536C21.4832 19.7248 21.4448 19.7008 21.4064 19.672C21.3584 19.6384 21.3104 19.6 21.2624 19.5664C21.224 19.5376 21.1904 19.504 21.152 19.4752C21.1088 19.4368 21.0656 19.3984 21.0224 19.3552C20.9888 19.3216 20.9552 19.288 20.9216 19.2544C20.8784 19.2112 20.84 19.168 20.8016 19.1248C20.768 19.0864 20.7392 19.0528 20.7056 19.0144C20.6672 18.9664 20.6336 18.9232 20.6 18.8752C20.5712 18.8368 20.5424 18.7936 20.5136 18.7552C20.48 18.7072 20.4512 18.6592 20.4224 18.6112C20.3984 18.568 20.3696 18.5248 20.3504 18.4816C20.3216 18.4336 20.2976 18.3808 20.2736 18.328C20.2496 18.28 20.2304 18.2368 20.2112 18.1888C20.1872 18.136 20.168 18.0832 20.1488 18.0304C20.1296 17.9824 20.1104 17.9344 20.096 17.8864C20.0816 17.8336 20.0672 17.7808 20.0528 17.7232C20.0384 17.6752 20.024 17.6224 20.0144 17.5648C20.0048 17.512 19.9952 17.4592 19.9904 17.4064C19.9808 17.3488 19.9712 17.296 19.9616 17.2336C19.9616 17.2336 19.9616 17.2288 19.9616 17.224H21.512H21.5072ZM19.16 11.8288C20.192 11.8288 21.032 12.6688 21.032 13.7008V13.9504C21.032 13.9504 21.0128 13.9504 20.9984 13.9456C20.888 13.9168 20.7824 13.8832 20.6768 13.8448C20.6576 13.8352 20.6384 13.8304 20.624 13.8208C20.528 13.7824 20.4368 13.7344 20.3456 13.6864C20.3312 13.6768 20.3168 13.672 20.3024 13.6624C20.2064 13.6048 20.1152 13.5424 20.0288 13.4704C20.0096 13.456 19.9904 13.4416 19.976 13.4272C19.8896 13.3552 19.8032 13.2784 19.7264 13.1968C19.7264 13.1968 19.7216 13.1872 19.7168 13.1872C19.64 13.1056 19.5728 13.0192 19.5104 12.928C19.5008 12.9136 19.4864 12.8992 19.4768 12.88C19.4144 12.784 19.3568 12.688 19.304 12.5872C19.2944 12.5728 19.2896 12.5584 19.2848 12.5392C19.2368 12.4384 19.1936 12.328 19.16 12.2176C19.16 12.2176 19.16 12.208 19.1552 12.208C19.1216 12.0976 19.0976 11.9776 19.0784 11.8624C19.0784 11.8528 19.0784 11.8384 19.0736 11.8288H19.16ZM13.2416 5.9248C13.2416 5.8864 13.232 5.848 13.232 5.8096C13.232 5.2192 13.712 4.744 14.2976 4.744C14.5808 4.744 14.8496 4.8544 15.0512 5.056C15.2528 5.2576 15.3632 5.5264 15.3632 5.8096C15.3632 6.0112 15.5264 6.1792 15.728 6.1792C15.9296 6.1792 16.0976 6.016 16.0976 5.8096C16.0976 5.2192 16.5776 4.744 17.1632 4.744C17.7488 4.744 18.2288 5.224 18.2288 5.8096C18.2288 5.8528 18.2288 5.8912 18.2192 5.944C18.1088 7.4464 16.3568 9.0496 15.7232 9.5824C15.0944 9.0496 13.3376 7.4464 13.2272 5.9296L13.2416 5.9248ZM18.2768 11.8288C18.2768 11.8576 18.2672 11.8864 18.2624 11.9152C18.2576 11.9488 18.2528 11.9824 18.2432 12.016C18.2336 12.064 18.2192 12.1072 18.2048 12.1552C18.1952 12.1888 18.1856 12.2176 18.176 12.2512C18.1616 12.2992 18.1424 12.3424 18.1232 12.3904C18.1136 12.4192 18.104 12.448 18.0896 12.4768C18.0656 12.5296 18.0416 12.5824 18.0128 12.6304C18.0032 12.6496 17.9936 12.6688 17.984 12.6928C17.9456 12.76 17.9072 12.8272 17.8592 12.8944C17.8496 12.9088 17.8352 12.9232 17.8256 12.9424C17.792 12.9904 17.7584 13.0384 17.72 13.0816C17.7008 13.1056 17.6816 13.1248 17.6624 13.1488C17.6288 13.1872 17.6 13.2208 17.5616 13.2544C17.5376 13.2784 17.5136 13.3024 17.4896 13.3216C17.456 13.3552 17.4224 13.384 17.3888 13.4128C17.3648 13.4368 17.336 13.456 17.3072 13.4752C17.2736 13.504 17.2352 13.528 17.2016 13.5568C17.1728 13.576 17.144 13.5952 17.1152 13.6144C17.0768 13.6384 17.0384 13.6624 17 13.6864C16.9712 13.7008 16.9376 13.72 16.9088 13.7344C16.8704 13.7584 16.8272 13.7728 16.7888 13.792C16.7552 13.8064 16.7264 13.8208 16.6928 13.8352C16.6496 13.8544 16.6064 13.8688 16.5632 13.8832C16.5296 13.8928 16.5008 13.9072 16.4672 13.9168C16.4192 13.9312 16.3712 13.9408 16.328 13.9504C16.2944 13.96 16.2656 13.9648 16.232 13.9744C16.1792 13.984 16.1264 13.9936 16.0688 13.9984C16.04 13.9984 16.016 14.008 15.9872 14.008C15.9056 14.0176 15.824 14.0224 15.7376 14.0224C15.6512 14.0224 15.5696 14.0176 15.488 14.008C15.4592 14.008 15.4352 13.9984 15.4064 13.9984C15.3536 13.9936 15.296 13.984 15.2432 13.9744C15.2144 13.9648 15.1808 13.96 15.152 13.9504C15.104 13.9408 15.056 13.9264 15.008 13.9168C14.9744 13.9072 14.9456 13.8976 14.912 13.888C14.8688 13.8736 14.8256 13.8592 14.7824 13.84C14.7488 13.8304 14.72 13.816 14.6912 13.8016C14.648 13.7824 14.6096 13.7632 14.5664 13.744C14.5376 13.7296 14.504 13.7104 14.4752 13.696C14.4368 13.672 14.3984 13.648 14.36 13.624C14.3312 13.6048 14.3024 13.5856 14.2736 13.5664C14.2352 13.5376 14.2016 13.5136 14.1632 13.4848C14.1392 13.4656 14.1104 13.4464 14.0864 13.4224C14.048 13.3936 14.0144 13.36 13.9808 13.3264C13.9568 13.3024 13.9328 13.2832 13.9136 13.2592C13.88 13.2256 13.8464 13.1872 13.8128 13.1488C13.7936 13.1296 13.7744 13.1056 13.7552 13.0864C13.7168 13.0384 13.6784 12.9856 13.64 12.9328C13.6304 12.9184 13.6208 12.9088 13.6112 12.8944C13.568 12.8272 13.5248 12.76 13.4912 12.6928C13.4768 12.6736 13.472 12.6496 13.4576 12.6256C13.4336 12.5776 13.4096 12.5248 13.3856 12.4768C13.3712 12.448 13.3616 12.4192 13.352 12.3904C13.3328 12.3424 13.3184 12.2992 13.304 12.2512C13.2944 12.2224 13.2848 12.184 13.2752 12.1552C13.2608 12.112 13.2512 12.064 13.2416 12.0208C13.232 11.9872 13.2272 11.9536 13.2224 11.9152C13.2224 11.8864 13.2128 11.8624 13.208 11.8336H18.2624L18.2768 11.8288ZM10.472 13.7008C10.472 12.6688 11.312 11.8288 12.344 11.8288H12.4304C12.4304 11.8288 12.4304 11.8528 12.4256 11.8672C12.4064 11.9824 12.3824 12.0928 12.3488 12.2032C12.3488 12.2128 12.3392 12.2272 12.3392 12.2368C12.3056 12.3376 12.2672 12.4336 12.224 12.5296C12.2144 12.5488 12.2048 12.568 12.1952 12.592C12.1472 12.688 12.0896 12.784 12.0272 12.8752C12.0128 12.8944 11.9984 12.9136 11.9888 12.9328C11.9264 13.0192 11.864 13.1008 11.792 13.1824C11.7872 13.1872 11.7824 13.192 11.7776 13.2016C11.7008 13.2832 11.6192 13.36 11.5328 13.432C11.5136 13.4464 11.4944 13.4608 11.4752 13.48C11.3888 13.5472 11.2976 13.6096 11.2016 13.6672C11.1872 13.6768 11.1728 13.6816 11.1536 13.6912C11.0624 13.7392 10.9712 13.7872 10.88 13.8256C10.8608 13.8352 10.8416 13.84 10.8224 13.8496C10.7168 13.888 10.6112 13.9216 10.5008 13.9504C10.4912 13.9504 10.4768 13.9504 10.4672 13.9552V13.7056L10.472 13.7008ZM10.472 14.704C10.472 14.704 10.5056 14.6944 10.52 14.6944C10.616 14.6752 10.712 14.6512 10.808 14.6272C10.8464 14.6176 10.8848 14.6032 10.9184 14.5888C10.9952 14.5648 11.0672 14.536 11.144 14.5072C11.1824 14.4928 11.2208 14.4784 11.2592 14.4592C11.336 14.4256 11.4032 14.3872 11.4752 14.3488C11.5088 14.3344 11.5376 14.3152 11.5712 14.3008C11.672 14.2432 11.768 14.176 11.8592 14.1136C11.8688 14.104 11.8736 14.0992 11.8832 14.0944C11.9648 14.032 12.0464 13.9648 12.1232 13.8928C12.152 13.8688 12.176 13.84 12.2048 13.816C12.2624 13.7632 12.3152 13.7056 12.368 13.648C12.3968 13.6192 12.4208 13.5856 12.4496 13.552C12.4976 13.4896 12.5456 13.4272 12.5936 13.3648C12.6128 13.336 12.6368 13.3072 12.656 13.2736C12.7136 13.1872 12.7664 13.096 12.8192 13C12.8192 12.9952 12.8288 12.9856 12.8336 12.976C12.8336 12.9856 12.8432 12.9904 12.848 13C12.9104 13.1152 12.9776 13.2304 13.0544 13.336C13.0688 13.36 13.088 13.384 13.1072 13.4032C13.1696 13.4896 13.2368 13.5712 13.304 13.6528C13.328 13.6816 13.352 13.7056 13.3808 13.7344C13.472 13.8256 13.5632 13.9168 13.6592 13.9984C13.6592 13.9984 13.664 14.0032 13.664 14.008C13.7648 14.0944 13.8752 14.1664 13.9856 14.2384C14.0192 14.2576 14.048 14.2768 14.0816 14.296C14.1728 14.3488 14.264 14.4016 14.36 14.4448C14.3888 14.4592 14.4128 14.4736 14.4416 14.4832C14.5616 14.536 14.6864 14.584 14.816 14.6224C14.8448 14.632 14.8736 14.6368 14.9024 14.6464C15.008 14.6752 15.1136 14.6992 15.224 14.7136C15.2624 14.7232 15.3008 14.728 15.3392 14.7328C15.4784 14.7472 15.6176 14.7616 15.7568 14.7616C15.896 14.7616 16.04 14.7472 16.1744 14.7328C16.2128 14.728 16.2512 14.7232 16.2896 14.7136C16.4 14.6992 16.5056 14.6752 16.6112 14.6464C16.64 14.6368 16.6688 14.632 16.6976 14.6224C16.8272 14.584 16.952 14.536 17.072 14.4832C17.1008 14.4736 17.1296 14.4544 17.1584 14.44C17.2544 14.3968 17.3456 14.3488 17.4368 14.2912C17.4704 14.272 17.504 14.2528 17.5328 14.2336C17.6432 14.1616 17.7488 14.0896 17.8496 14.0032C17.8592 13.9936 17.864 13.9888 17.8688 13.984C17.96 13.9072 18.0512 13.8208 18.1328 13.7344C18.1616 13.7056 18.1904 13.672 18.2144 13.6432C18.2816 13.5712 18.344 13.4944 18.4016 13.4128C18.4208 13.384 18.4448 13.3552 18.464 13.3264C18.536 13.2208 18.6032 13.1152 18.6608 13C18.6656 12.9904 18.6752 12.9808 18.68 12.9712C18.68 12.9712 18.68 12.976 18.6848 12.9808C18.7376 13.0768 18.7952 13.1728 18.8528 13.264C18.872 13.2928 18.896 13.3216 18.9152 13.3504C18.9632 13.4176 19.0112 13.48 19.0592 13.5424C19.0832 13.5712 19.112 13.6048 19.136 13.6336C19.1888 13.6912 19.2416 13.7488 19.2992 13.8016C19.328 13.8304 19.352 13.8544 19.3808 13.8832C19.4576 13.9504 19.5344 14.0176 19.616 14.08C19.6256 14.0896 19.6352 14.0944 19.6448 14.104C19.736 14.1712 19.832 14.2336 19.9328 14.2912C19.9616 14.3104 19.9952 14.3248 20.024 14.3392C20.096 14.3776 20.168 14.416 20.2448 14.4496C20.2832 14.4688 20.3216 14.4832 20.3552 14.4976C20.4272 14.5264 20.504 14.5552 20.5808 14.5792C20.6192 14.5936 20.6528 14.6032 20.6912 14.6176C20.7872 14.6464 20.8784 14.6656 20.9792 14.6848C20.9936 14.6848 21.0128 14.6944 21.0272 14.6944V16.48H10.4672V14.6944L10.472 14.704ZM19.1792 17.224C19.1696 17.3344 19.1504 17.44 19.1312 17.5504C19.1312 17.5696 19.1216 17.5888 19.1168 17.6128C19.0976 17.6992 19.0784 17.7856 19.0496 17.872C19.0352 17.9104 19.0208 17.9488 19.0112 17.9824C18.9872 18.0496 18.968 18.1168 18.9392 18.1792C18.92 18.2224 18.9008 18.2608 18.8816 18.2992C18.8528 18.3568 18.8288 18.4144 18.8 18.472C18.776 18.5152 18.752 18.5536 18.728 18.592C18.6992 18.6448 18.6656 18.6976 18.632 18.7456C18.608 18.784 18.5792 18.8272 18.5504 18.8656C18.5168 18.9136 18.4784 18.9616 18.4448 19.0096C18.416 19.048 18.3824 19.0816 18.3536 19.12C18.3152 19.1632 18.2768 19.2064 18.2336 19.2496C18.2 19.2832 18.1664 19.3168 18.128 19.3552C18.0848 19.3936 18.0416 19.4368 17.9984 19.4704C17.96 19.504 17.9264 19.5376 17.8832 19.5664C17.8352 19.6048 17.792 19.6384 17.744 19.672C17.7056 19.7008 17.6624 19.7296 17.624 19.7584C17.576 19.7872 17.5232 19.8208 17.4704 19.8496C17.4272 19.8736 17.384 19.8976 17.3408 19.9216C17.288 19.9504 17.2352 19.9744 17.1776 19.9984C17.1344 20.0176 17.0912 20.0416 17.048 20.0608C16.9904 20.0848 16.9328 20.104 16.8704 20.1232C16.8272 20.1376 16.784 20.1568 16.736 20.1712C16.6736 20.1904 16.6064 20.2048 16.544 20.2192C16.5008 20.2288 16.4576 20.2432 16.4144 20.248C16.3424 20.2624 16.2656 20.272 16.1936 20.2816C16.1552 20.2864 16.1168 20.2912 16.0784 20.296C15.968 20.3056 15.8528 20.3152 15.7376 20.3152C15.6224 20.3152 15.5072 20.3056 15.3968 20.296C15.3584 20.296 15.32 20.2864 15.2864 20.2816C15.2144 20.272 15.1376 20.2624 15.0656 20.248C15.0224 20.2384 14.9792 20.2288 14.936 20.2192C14.8736 20.2048 14.8064 20.1904 14.744 20.1712C14.7008 20.1568 14.6576 20.1424 14.6096 20.1232C14.552 20.104 14.4896 20.08 14.432 20.0608C14.3888 20.0416 14.3456 20.0224 14.3024 19.9984C14.2496 19.9744 14.192 19.9504 14.1392 19.9216C14.096 19.8976 14.0528 19.8736 14.0144 19.8496C13.9616 19.8208 13.9136 19.7872 13.8656 19.7584C13.8224 19.7296 13.784 19.7008 13.7456 19.672C13.6976 19.6384 13.6496 19.6048 13.6064 19.5664C13.568 19.5376 13.5296 19.504 13.4912 19.4704C13.448 19.432 13.4048 19.3936 13.3616 19.3552C13.328 19.3216 13.2896 19.288 13.256 19.2496C13.2176 19.2064 13.1744 19.1632 13.136 19.12C13.1024 19.0816 13.0736 19.048 13.04 19.0096C13.0016 18.9616 12.968 18.9136 12.9344 18.8656C12.9056 18.8272 12.8768 18.784 12.848 18.7456C12.8144 18.6976 12.7856 18.6448 12.7568 18.592C12.7328 18.5488 12.7088 18.5104 12.6848 18.4672C12.656 18.4096 12.632 18.3568 12.6032 18.2992C12.584 18.256 12.5648 18.2176 12.5456 18.1744C12.5216 18.112 12.4976 18.0496 12.4784 17.9872C12.464 17.9488 12.4496 17.9104 12.4352 17.8672C12.4112 17.7856 12.392 17.7088 12.3728 17.6272C12.368 17.5984 12.3584 17.5744 12.3536 17.5456C12.3344 17.44 12.3152 17.3296 12.3056 17.2192H19.1648L19.1792 17.224ZM8.1248 19.0912C8.1248 18.0592 8.9648 17.2192 9.9968 17.2192H11.5472C11.5376 17.3296 11.5184 17.4352 11.4992 17.5456C11.4944 17.5744 11.4848 17.6032 11.48 17.632C11.4608 17.7136 11.4416 17.7904 11.4176 17.8672C11.4032 17.9104 11.3888 17.9488 11.3744 17.9872C11.3504 18.0496 11.3312 18.112 11.3072 18.1744C11.288 18.2176 11.2688 18.2608 11.2496 18.2992C11.2256 18.3568 11.1968 18.4096 11.168 18.4672C11.144 18.5104 11.12 18.5536 11.096 18.592C11.0672 18.6448 11.0336 18.6976 11.0048 18.7456C10.976 18.7888 10.9472 18.8272 10.9184 18.8656C10.8848 18.9136 10.8512 18.9616 10.8128 19.0048C10.784 19.0432 10.7504 19.0816 10.7168 19.12C10.6784 19.1632 10.64 19.2064 10.6016 19.2448C10.568 19.2784 10.5344 19.3168 10.496 19.3504C10.4528 19.3888 10.4096 19.4272 10.3664 19.4656C10.328 19.4992 10.2896 19.528 10.2512 19.5616C10.2032 19.5952 10.16 19.6336 10.112 19.6672C10.0736 19.696 10.0304 19.7248 9.992 19.7536C9.944 19.7872 9.8912 19.816 9.8432 19.8448C9.8 19.8688 9.7568 19.8928 9.7136 19.9168C9.6608 19.9456 9.608 19.9696 9.5504 19.9936C9.5072 20.0128 9.464 20.0368 9.416 20.0512C9.3584 20.0752 9.3008 20.0944 9.2432 20.1184C9.2 20.1328 9.1568 20.1472 9.1088 20.1664C9.0464 20.1856 8.9792 20.2 8.9168 20.2144C8.8736 20.224 8.8304 20.2384 8.7872 20.2432C8.7104 20.2576 8.6336 20.2672 8.552 20.2768C8.5184 20.2768 8.4896 20.2864 8.456 20.2912C8.3456 20.3008 8.2352 20.3104 8.12 20.3104V19.096L8.1248 19.0912ZM8.1248 21.04C8.2544 21.04 8.3792 21.0304 8.504 21.0208C8.5376 21.0208 8.576 21.0112 8.6096 21.0112C8.7056 21.0016 8.7968 20.9872 8.8928 20.968C8.9264 20.9584 8.96 20.9536 8.9936 20.9488C9.1136 20.9248 9.2336 20.896 9.3488 20.8576C9.368 20.8576 9.3824 20.8432 9.4016 20.8384C9.4976 20.8048 9.5984 20.7712 9.6944 20.7328C9.7328 20.7184 9.7712 20.704 9.8048 20.6848C9.8816 20.6512 9.9584 20.6128 10.0352 20.5744C10.0688 20.5552 10.1072 20.5408 10.1408 20.5216C10.2368 20.4688 10.3328 20.4064 10.4288 20.3488C10.4672 20.32 10.5056 20.2912 10.5392 20.2672C10.5968 20.224 10.6544 20.1856 10.7072 20.1424C10.7504 20.1088 10.7984 20.0704 10.8416 20.032C10.8848 19.9936 10.928 19.9552 10.9664 19.9168C11.072 19.816 11.1776 19.7104 11.2736 19.6C11.2784 19.5904 11.288 19.5856 11.2976 19.576C11.3456 19.5184 11.3936 19.456 11.4416 19.3936C11.4608 19.3696 11.48 19.3408 11.4992 19.3168C11.5472 19.2496 11.5952 19.1824 11.6384 19.1152C11.648 19.1008 11.6528 19.0864 11.6624 19.072C11.7584 18.9136 11.8496 18.7504 11.9264 18.5776C11.9696 18.6736 12.0128 18.7648 12.0656 18.856C12.0704 18.8656 12.08 18.88 12.0848 18.8896C12.1376 18.9808 12.1952 19.072 12.2528 19.1632C12.272 19.192 12.2912 19.2256 12.3152 19.2544C12.368 19.3312 12.4208 19.4032 12.4784 19.4752C12.4976 19.4992 12.5168 19.5232 12.536 19.5472C12.6128 19.6384 12.6896 19.7248 12.776 19.8112C12.7952 19.8304 12.8144 19.8448 12.8336 19.864C12.9008 19.9312 12.9728 19.9936 13.0448 20.056C13.0736 20.08 13.1024 20.104 13.1312 20.128C13.2032 20.1856 13.28 20.2432 13.3568 20.3008C13.3808 20.3152 13.4 20.3296 13.424 20.3488C13.5248 20.416 13.6256 20.4784 13.7312 20.536C13.76 20.5504 13.7888 20.5648 13.8128 20.5792C13.8944 20.6224 13.9808 20.6656 14.0624 20.6992C14.096 20.7136 14.1296 20.728 14.1632 20.7424C14.2592 20.7808 14.36 20.8192 14.4608 20.8528C14.48 20.8576 14.4944 20.8624 14.5136 20.8672C14.6288 20.9056 14.7488 20.9344 14.8688 20.9584C14.9024 20.968 14.936 20.9728 14.9696 20.9776C15.0608 20.9968 15.1568 21.0064 15.2528 21.0208C15.2912 21.0208 15.3248 21.0304 15.3632 21.0352C15.488 21.0448 15.6176 21.0544 15.7472 21.0544C15.8768 21.0544 16.0064 21.0448 16.1312 21.0352C16.1696 21.0352 16.2032 21.0256 16.2416 21.0208C16.3376 21.0112 16.4288 20.9968 16.5248 20.9776C16.5584 20.9728 16.592 20.968 16.6256 20.9584C16.7456 20.9296 16.8656 20.9008 16.9808 20.8672C17 20.8624 17.0192 20.8576 17.0336 20.848C17.1344 20.8144 17.2304 20.7808 17.3264 20.7424C17.36 20.728 17.3984 20.7136 17.432 20.6992C17.5184 20.6608 17.6 20.6224 17.6816 20.5792C17.7104 20.5648 17.7392 20.5504 17.7632 20.536C17.8688 20.4784 17.9696 20.416 18.0704 20.3536C18.0944 20.3392 18.1184 20.32 18.1376 20.3056C18.2144 20.2528 18.2912 20.1952 18.3632 20.1376C18.392 20.1136 18.4208 20.0896 18.4496 20.0656C18.5216 20.0032 18.5936 19.936 18.6656 19.8688C18.6848 19.8544 18.6992 19.8352 18.7184 19.816C18.8 19.7296 18.8816 19.6432 18.9584 19.552C18.9776 19.528 18.9968 19.504 19.016 19.48C19.0736 19.408 19.1312 19.336 19.184 19.2592C19.2032 19.2304 19.2224 19.2016 19.2416 19.1728C19.304 19.0816 19.3616 18.9856 19.4144 18.8848C19.4144 18.8752 19.424 18.8704 19.4288 18.8608C19.4768 18.7696 19.5248 18.6784 19.568 18.5872C19.6112 18.6784 19.6544 18.7696 19.7024 18.8608C19.7072 18.8752 19.7168 18.8848 19.7264 18.8992C19.7792 18.9904 19.832 19.0816 19.8944 19.1728C19.9136 19.2016 19.9376 19.2352 19.9568 19.264C20.0096 19.336 20.0624 19.4128 20.12 19.48C20.1392 19.504 20.1584 19.528 20.1776 19.5568C20.2544 19.648 20.3312 19.7344 20.4176 19.8208C20.4368 19.84 20.456 19.8544 20.4704 19.8736C20.5376 19.9408 20.6096 20.0032 20.6864 20.0704C20.7152 20.0944 20.744 20.1184 20.7728 20.1376C20.8496 20.2 20.9264 20.2576 21.0032 20.3104C21.0224 20.3248 21.0416 20.3392 21.0656 20.3536C21.1664 20.4208 21.2672 20.4784 21.3728 20.5408C21.4016 20.5552 21.4256 20.5696 21.4544 20.584C21.536 20.6272 21.6224 20.6704 21.7088 20.704C21.7424 20.7184 21.776 20.7328 21.8096 20.7472C21.9104 20.7904 22.0112 20.8288 22.1168 20.8576C22.1312 20.8576 22.1456 20.8672 22.1552 20.872C22.2704 20.9056 22.3904 20.9392 22.5152 20.9632C22.5488 20.9728 22.5824 20.9776 22.616 20.9824C22.7072 21.0016 22.8032 21.0112 22.8992 21.0256C22.9376 21.0256 22.9712 21.0352 23.0048 21.04C23.1296 21.0496 23.2544 21.0592 23.384 21.0592V21.8992H8.1296V21.0592L8.1248 21.04ZM19.184 22.6144C19.184 22.6384 19.1792 22.6624 19.1744 22.6816C19.1648 22.7728 19.1504 22.8592 19.1312 22.9504C19.1216 22.9936 19.112 23.032 19.1024 23.0704C19.088 23.1376 19.0688 23.2048 19.0496 23.272C19.0352 23.3152 19.0208 23.3584 19.0064 23.4016C18.9872 23.4592 18.9632 23.5216 18.9392 23.5792C18.92 23.6224 18.9008 23.6656 18.8768 23.7088C18.8528 23.7664 18.824 23.8192 18.8 23.872C18.776 23.9152 18.752 23.9584 18.728 23.9968C18.6992 24.0496 18.6656 24.1024 18.6368 24.1504C18.608 24.1936 18.5792 24.232 18.5504 24.2704C18.5168 24.3184 18.4832 24.3664 18.4448 24.4096C18.416 24.448 18.3824 24.4864 18.3488 24.5248C18.3104 24.568 18.272 24.6112 18.2336 24.6544C18.2 24.688 18.1664 24.7264 18.128 24.76C18.0848 24.7984 18.0416 24.8368 17.9984 24.8752C17.96 24.9088 17.9216 24.9376 17.8832 24.9712C17.8352 25.0096 17.792 25.0432 17.744 25.0768C17.7056 25.1056 17.6624 25.1344 17.624 25.1584C17.576 25.192 17.5232 25.2208 17.4704 25.2496C17.4272 25.2736 17.3888 25.2976 17.3456 25.3216C17.2928 25.3504 17.2352 25.3744 17.1824 25.4032C17.1392 25.4224 17.096 25.4416 17.0528 25.4608C16.9952 25.4848 16.9376 25.504 16.8752 25.528C16.832 25.5424 16.7888 25.5616 16.7408 25.576C16.6784 25.5952 16.6112 25.6096 16.5488 25.624C16.5056 25.6336 16.4624 25.648 16.4192 25.6528C16.3472 25.6672 16.2704 25.6768 16.1984 25.6864C16.16 25.6864 16.1264 25.696 16.088 25.7008C15.9728 25.7104 15.8624 25.7152 15.7472 25.7152C15.632 25.7152 15.5168 25.7104 15.4064 25.7008C15.368 25.7008 15.3344 25.6912 15.296 25.6864C15.224 25.6768 15.1472 25.6672 15.0752 25.6528C15.032 25.6432 14.9888 25.6336 14.9456 25.624C14.8832 25.6096 14.816 25.5952 14.7536 25.5712C14.7104 25.5568 14.6624 25.5424 14.6192 25.5232C14.5616 25.504 14.4992 25.4848 14.4416 25.4608C14.3984 25.4416 14.3552 25.4224 14.312 25.4032C14.2592 25.3792 14.2016 25.3552 14.1488 25.3264C14.1056 25.3024 14.0624 25.2784 14.0192 25.2544C13.9664 25.2256 13.9184 25.192 13.8656 25.1632C13.8224 25.1392 13.784 25.1104 13.7456 25.0816C13.6976 25.048 13.6496 25.0144 13.6064 24.976C13.568 24.9472 13.5296 24.9136 13.4912 24.8848C13.448 24.8464 13.4048 24.808 13.3616 24.7696C13.328 24.736 13.2896 24.7024 13.256 24.664C13.2176 24.6208 13.1744 24.5776 13.1408 24.5344C13.1072 24.496 13.0784 24.4576 13.0448 24.4192C13.0064 24.376 12.9728 24.328 12.9392 24.28C12.9104 24.2416 12.8816 24.1984 12.8528 24.16C12.8192 24.112 12.7904 24.0592 12.7616 24.0112C12.7376 23.968 12.7136 23.9248 12.6896 23.8864C12.6608 23.8336 12.6368 23.7808 12.6128 23.7232C12.5936 23.68 12.5696 23.6368 12.5552 23.5936C12.5312 23.536 12.512 23.4784 12.488 23.4208C12.4736 23.3776 12.4544 23.3344 12.44 23.2864C12.4208 23.224 12.4064 23.1616 12.392 23.0944C12.3824 23.0512 12.368 23.008 12.3584 22.9648C12.344 22.8928 12.3344 22.8208 12.3248 22.7488C12.32 22.7104 12.3104 22.672 12.3104 22.6336V22.624H19.1792L19.184 22.6144ZM5.744 24.4864C5.744 23.4544 6.584 22.6144 7.616 22.6144H11.5472C11.5472 22.6336 11.5424 22.6576 11.5376 22.6768C11.528 22.768 11.5136 22.8592 11.4944 22.9456C11.4848 22.9888 11.4752 23.0272 11.4656 23.0656C11.4512 23.1328 11.432 23.2 11.4128 23.2624C11.3984 23.3104 11.384 23.3488 11.3696 23.392C11.3504 23.4496 11.3264 23.512 11.3024 23.5696C11.2832 23.6128 11.264 23.656 11.2448 23.6992C11.2208 23.752 11.1968 23.8096 11.168 23.8624C11.144 23.9056 11.12 23.9488 11.096 23.9872C11.0672 24.04 11.0384 24.088 11.0048 24.136C10.976 24.1792 10.9472 24.2176 10.9184 24.256C10.8848 24.304 10.8512 24.352 10.8128 24.3952C10.7792 24.4336 10.7504 24.472 10.7168 24.5104C10.6784 24.5536 10.64 24.5968 10.6016 24.64C10.568 24.6736 10.5296 24.712 10.496 24.7456C10.4528 24.784 10.4096 24.8224 10.3664 24.8608C10.328 24.8944 10.2896 24.9232 10.2512 24.9568C10.2032 24.9952 10.16 25.0288 10.112 25.0624C10.0736 25.0912 10.0304 25.12 9.992 25.1488C9.944 25.1824 9.8912 25.2112 9.8432 25.24C9.8 25.264 9.7568 25.288 9.7136 25.312C9.6608 25.3408 9.6032 25.3648 9.5504 25.3936C9.5072 25.4128 9.464 25.432 9.4208 25.4512C9.3632 25.4752 9.3056 25.4944 9.248 25.5184C9.2048 25.5328 9.1616 25.552 9.1136 25.5664C9.0512 25.5856 8.984 25.6 8.9216 25.6144C8.8784 25.624 8.8352 25.6336 8.792 25.6432C8.72 25.6576 8.648 25.6672 8.5712 25.6768C8.5328 25.6768 8.4944 25.6864 8.4608 25.6912C8.3504 25.7008 8.2352 25.7056 8.12 25.7056C8.0048 25.7056 7.8944 25.7008 7.7792 25.6912C7.7408 25.6912 7.7072 25.6816 7.6688 25.6768C7.592 25.6672 7.52 25.6576 7.448 25.6432C7.4048 25.6336 7.3616 25.624 7.3184 25.6144C7.2512 25.6 7.1888 25.5856 7.1216 25.5664C7.0784 25.552 7.0352 25.5376 6.9872 25.5184C6.9248 25.4992 6.8672 25.4752 6.8048 25.4512C6.7616 25.432 6.7184 25.4128 6.6752 25.3936C6.6176 25.3648 6.56 25.3408 6.5072 25.312C6.464 25.288 6.4208 25.264 6.3776 25.24C6.3248 25.2064 6.272 25.1776 6.2192 25.144C6.176 25.1152 6.1376 25.0864 6.0944 25.0576C6.0464 25.0192 5.9936 24.9856 5.9456 24.9424C5.9072 24.9136 5.8688 24.8752 5.8304 24.8416C5.8016 24.8176 5.7728 24.7888 5.7488 24.7648V24.4864H5.744ZM25.7552 27.2752H5.744V25.72C5.744 25.72 5.7488 25.72 5.7536 25.72C5.7632 25.7296 5.7776 25.7344 5.7872 25.744C5.8784 25.8064 5.9744 25.864 6.0752 25.9216C6.1088 25.9408 6.1424 25.9552 6.176 25.9744C6.2576 26.0176 6.344 26.0608 6.4256 26.0944C6.4592 26.1088 6.488 26.1232 6.5216 26.1376C6.6368 26.1856 6.752 26.2288 6.872 26.2672C6.8768 26.2672 6.8864 26.2672 6.8912 26.272C7.0016 26.3056 7.1168 26.3344 7.232 26.3584C7.2704 26.368 7.304 26.3728 7.3424 26.3776C7.4336 26.3968 7.5248 26.4064 7.616 26.4208C7.6544 26.4208 7.688 26.4304 7.7264 26.4352C7.8512 26.4448 7.9808 26.4544 8.1104 26.4544C8.24 26.4544 8.3696 26.4448 8.4944 26.4352C8.5328 26.4352 8.5664 26.4256 8.6048 26.4208C8.7008 26.4112 8.792 26.3968 8.888 26.3776C8.9216 26.368 8.9552 26.3632 8.9888 26.3584C9.1088 26.3344 9.2288 26.3008 9.344 26.2672C9.3632 26.2672 9.3776 26.2528 9.3968 26.248C9.4976 26.2144 9.5936 26.1808 9.6896 26.1424C9.7232 26.128 9.7568 26.1136 9.7904 26.0992C9.8768 26.0608 9.9584 26.0176 10.0448 25.9744C10.0688 25.96 10.0976 25.9456 10.1264 25.9312C10.232 25.8736 10.3328 25.8112 10.4336 25.744C10.4576 25.7296 10.4768 25.7104 10.5008 25.696C10.5776 25.6432 10.6544 25.5856 10.7264 25.528C10.7552 25.504 10.784 25.48 10.8128 25.456C10.8896 25.3936 10.9616 25.3264 11.0288 25.2592C11.0432 25.2448 11.0624 25.2304 11.0768 25.2112C11.1632 25.1248 11.24 25.0384 11.3168 24.9472C11.336 24.9232 11.3552 24.8944 11.3744 24.8704C11.432 24.7984 11.4848 24.7264 11.5376 24.6544C11.5568 24.6256 11.5808 24.592 11.6 24.5632C11.6624 24.472 11.72 24.376 11.7728 24.28C11.7776 24.2704 11.7824 24.2608 11.7872 24.2512C11.8352 24.16 11.8784 24.0736 11.9216 23.9776C11.9648 24.0688 12.008 24.1648 12.0608 24.2512C12.0704 24.2656 12.0752 24.28 12.0848 24.2896C12.1376 24.3808 12.1904 24.472 12.248 24.5632C12.2672 24.592 12.2864 24.6256 12.3104 24.6544C12.3632 24.7312 12.416 24.8032 12.4736 24.8752C12.4928 24.8992 12.512 24.9232 12.5312 24.9472C12.608 25.0384 12.6848 25.1248 12.7712 25.2112C12.7904 25.2256 12.8096 25.2448 12.824 25.2592C12.8912 25.3264 12.9632 25.3936 13.04 25.456C13.0688 25.48 13.0976 25.504 13.1264 25.528C13.2032 25.5904 13.28 25.648 13.3568 25.7008C13.376 25.7152 13.4 25.7296 13.4192 25.7488C13.52 25.816 13.6208 25.8736 13.7264 25.936C13.7552 25.9504 13.7792 25.9648 13.808 25.9792C13.8896 26.0224 13.976 26.0656 14.0624 26.104C14.096 26.1184 14.1296 26.1328 14.1632 26.1472C14.2592 26.1856 14.36 26.224 14.4608 26.2576C14.4752 26.2576 14.4944 26.2672 14.5088 26.272C14.624 26.3056 14.744 26.3392 14.8688 26.3632C14.9024 26.3728 14.936 26.3776 14.9696 26.3824C15.0608 26.3968 15.1568 26.4112 15.2528 26.4256C15.2912 26.4256 15.3248 26.4352 15.3632 26.44C15.488 26.4496 15.6176 26.4592 15.7472 26.4592C15.8768 26.4592 16.0064 26.4496 16.1312 26.44C16.1696 26.44 16.2032 26.4304 16.2416 26.4256C16.3376 26.416 16.4288 26.4016 16.5248 26.3824C16.5584 26.3728 16.592 26.368 16.6256 26.3632C16.7456 26.3392 16.8656 26.3056 16.9856 26.272C17 26.272 17.0192 26.2624 17.0336 26.2576C17.1344 26.224 17.2352 26.1856 17.3312 26.1472C17.3648 26.1328 17.3984 26.1184 17.432 26.104C17.5184 26.0656 17.6048 26.0224 17.6912 25.9792C17.7152 25.9648 17.7392 25.9552 17.7632 25.9408C17.8688 25.8832 17.9744 25.8208 18.0752 25.7536C18.0944 25.7392 18.1136 25.7248 18.1328 25.7152C18.2144 25.6576 18.296 25.5952 18.3728 25.5328C18.3968 25.5136 18.4256 25.4896 18.4496 25.4704C18.5312 25.4032 18.608 25.3312 18.6848 25.2592C18.6944 25.2496 18.7088 25.2352 18.7232 25.2256C18.8096 25.1392 18.8912 25.048 18.9728 24.952C18.9872 24.9328 19.0016 24.9184 19.016 24.8992C19.0784 24.8224 19.1408 24.7408 19.1984 24.6544C19.2128 24.6304 19.232 24.6064 19.2464 24.5824C19.3712 24.3952 19.4816 24.1984 19.5776 23.992C19.6208 24.0832 19.664 24.1744 19.712 24.2656C19.7168 24.2752 19.7264 24.2896 19.7312 24.2992C19.784 24.3952 19.8416 24.4864 19.8992 24.5776C19.9184 24.6064 19.9424 24.6352 19.9616 24.664C20.0144 24.7408 20.072 24.8128 20.1248 24.8848C20.144 24.9088 20.1632 24.9328 20.1824 24.9568C20.2592 25.048 20.3408 25.1344 20.4224 25.2208C20.4416 25.24 20.456 25.2544 20.4752 25.2688C20.5472 25.336 20.6192 25.4032 20.6912 25.4656C20.72 25.4896 20.7488 25.5136 20.7776 25.5328C20.8544 25.5952 20.9264 25.6528 21.008 25.7056C21.032 25.72 21.0512 25.7344 21.0704 25.7536C21.1712 25.8208 21.272 25.8832 21.3776 25.9408C21.4016 25.9552 21.4304 25.9696 21.4592 25.984C21.5408 26.0272 21.6272 26.0704 21.7136 26.1088C21.7472 26.1232 21.7808 26.1376 21.8144 26.152C21.9104 26.1904 22.0112 26.2288 22.112 26.2624C22.1312 26.2624 22.1456 26.272 22.16 26.2768C22.2752 26.3104 22.3952 26.344 22.52 26.368C22.5536 26.3776 22.5872 26.3824 22.6208 26.3872C22.712 26.4016 22.808 26.416 22.904 26.4304C22.9424 26.4304 22.976 26.44 23.0144 26.4448C23.1392 26.4544 23.2688 26.464 23.3984 26.464C23.528 26.464 23.6528 26.4544 23.7824 26.4448C23.8208 26.4448 23.8592 26.4352 23.8928 26.4304C23.984 26.4208 24.0752 26.4064 24.1664 26.392C24.2048 26.3824 24.2432 26.3776 24.2816 26.368C24.392 26.344 24.5024 26.3152 24.6128 26.2816C24.6224 26.2816 24.632 26.2816 24.6416 26.272C24.7616 26.2336 24.8768 26.1904 24.9872 26.1472C25.0208 26.1328 25.0544 26.1184 25.0928 26.0992C25.1744 26.0608 25.256 26.0224 25.3376 25.9792C25.3712 25.96 25.4096 25.9408 25.4432 25.9216C25.5392 25.8688 25.6304 25.8112 25.7216 25.7488C25.736 25.7392 25.7504 25.7296 25.7648 25.72C25.7648 25.72 25.7696 25.72 25.7744 25.7152V27.2752H25.7552ZM25.7552 24.7648C25.7264 24.7936 25.7024 24.8176 25.6736 24.8416C25.6352 24.8752 25.5968 24.9088 25.5584 24.9424C25.5104 24.9808 25.4624 25.0192 25.4096 25.0576C25.3664 25.0864 25.328 25.1152 25.2848 25.144C25.232 25.1776 25.1792 25.2112 25.1264 25.24C25.0832 25.2688 25.04 25.2928 24.9968 25.3168C24.944 25.3456 24.8864 25.3696 24.8288 25.3984C24.7856 25.4176 24.7424 25.4416 24.6944 25.4608C24.6368 25.4848 24.5744 25.5088 24.512 25.528C24.4688 25.5424 24.4256 25.5616 24.3776 25.576C24.3152 25.5952 24.248 25.6096 24.1808 25.624C24.1376 25.6336 24.0944 25.648 24.0512 25.6528C23.9792 25.6672 23.9024 25.6768 23.8304 25.6864C23.792 25.6864 23.7584 25.696 23.72 25.7008C23.6096 25.7104 23.4944 25.7152 23.3792 25.7152C23.264 25.7152 23.1488 25.7104 23.0384 25.7008C23 25.7008 22.9616 25.6912 22.9232 25.6864C22.8512 25.6768 22.7744 25.6672 22.7072 25.6528C22.664 25.6432 22.616 25.6336 22.5728 25.6192C22.5104 25.6048 22.448 25.5904 22.3856 25.5712C22.3376 25.5568 22.2896 25.5424 22.2416 25.5232C22.1888 25.504 22.1312 25.4848 22.0784 25.4608C22.0304 25.4416 21.9776 25.4176 21.9296 25.3936C21.8816 25.3696 21.8336 25.3456 21.7904 25.3264C21.7376 25.2976 21.6896 25.2688 21.6368 25.24C21.5984 25.216 21.5552 25.192 21.5168 25.168C21.464 25.1344 21.4112 25.096 21.3584 25.0624C21.3248 25.0384 21.2912 25.0144 21.2624 24.9904C21.2096 24.9472 21.152 24.904 21.104 24.856C21.08 24.8368 21.056 24.8128 21.032 24.7888C20.9744 24.736 20.9216 24.6832 20.8688 24.6256C20.8544 24.6064 20.8352 24.592 20.8208 24.5728C20.7632 24.5104 20.7104 24.448 20.6576 24.376C20.648 24.3664 20.6432 24.352 20.6336 24.3424C20.576 24.2704 20.5232 24.1888 20.4704 24.112C20.4704 24.112 20.4704 24.112 20.4704 24.1072C20.192 23.6656 20.0096 23.1616 19.952 22.6144H23.8832C24.9152 22.6144 25.7552 23.4544 25.7552 24.4864V24.7648Z" fill="black"/>
<path d="M7.75519 24.6783C8.08159 24.6783 8.34559 24.4143 8.34559 24.0879C8.34559 23.7615 8.08159 23.4927 7.75519 23.4927C7.42879 23.4927 7.16479 23.7567 7.16479 24.0879C7.16479 24.4191 7.42879 24.6783 7.75519 24.6783Z" fill="black"/>
<path d="M15.752 24.6783C16.0784 24.6783 16.3424 24.4143 16.3424 24.0879C16.3424 23.7615 16.0784 23.4927 15.752 23.4927C15.4256 23.4927 15.1616 23.7567 15.1616 24.0879C15.1616 24.4191 15.4256 24.6783 15.752 24.6783Z" fill="black"/>
<path d="M15.752 19.216C16.0784 19.216 16.3424 18.952 16.3424 18.6256C16.3424 18.2992 16.0784 18.0352 15.752 18.0352C15.4256 18.0352 15.1616 18.2992 15.1616 18.6256C15.1616 18.952 15.4256 19.216 15.752 19.216Z" fill="black"/>
<path d="M21.8336 19.216C22.16 19.216 22.424 18.952 22.424 18.6256C22.424 18.2992 22.16 18.0352 21.8336 18.0352C21.5072 18.0352 21.2432 18.2992 21.2432 18.6256C21.2432 18.952 21.5072 19.216 21.8336 19.216Z" fill="black"/>
<path d="M9.51203 19.216C9.83843 19.216 10.1024 18.952 10.1024 18.6256C10.1024 18.2992 9.83843 18.0352 9.51203 18.0352C9.18563 18.0352 8.92163 18.2992 8.92163 18.6256C8.92163 18.952 9.18563 19.216 9.51203 19.216Z" fill="black"/>
<path d="M15.752 13.4703C16.0784 13.4703 16.3424 13.2063 16.3424 12.8799C16.3424 12.5535 16.0784 12.2847 15.752 12.2847C15.4256 12.2847 15.1616 12.5487 15.1616 12.8799C15.1616 13.2111 15.4256 13.4703 15.752 13.4703Z" fill="black"/>
<path d="M11.3408 13.1921C11.5136 13.1921 11.6528 13.0529 11.6528 12.8801C11.6528 12.7073 11.5136 12.5681 11.3408 12.5681C11.168 12.5681 11.0288 12.7073 11.0288 12.8801C11.0288 13.0529 11.168 13.1921 11.3408 13.1921Z" fill="black"/>
<path d="M20.2208 13.1921C20.3936 13.1921 20.5328 13.0529 20.5328 12.8801C20.5328 12.7073 20.3936 12.5681 20.2208 12.5681C20.048 12.5681 19.9088 12.7073 19.9088 12.8801C19.9088 13.0529 20.048 13.1921 20.2208 13.1921Z" fill="black"/>
<path d="M23.744 23.4927C23.4176 23.4927 23.1536 23.7567 23.1536 24.0879C23.1536 24.4191 23.4176 24.6783 23.744 24.6783C24.0704 24.6783 24.3344 24.4143 24.3344 24.0879C24.3344 23.7615 24.0704 23.4927 23.744 23.4927Z" fill="black"/>
</svg>
