<svg width="178" height="222" viewBox="0 0 178 222" fill="none" xmlns="http://www.w3.org/2000/svg">
<path d="M6.11224 18.8389C3.88661 22.4377 2.3583 26.4936 1.69273 30.5652C-0.0759058 41.3732 0.314437 54.3128 2.85539 69.0268C5.18994 82.5388 9.27489 97.2647 14.9963 112.793C15.6733 114.631 16.3706 116.473 17.0865 118.313C27.6528 145.48 42.3042 172.709 57.7576 193.785C65.861 204.836 74.8385 212.688 84.4369 217.123C97.1118 222.979 111.076 223.016 125.942 217.234C138.344 212.41 147.457 204.744 153.025 194.449C158.256 184.78 160.209 173.061 158.83 159.62C156.678 138.662 152.698 117.453 146.705 95.0942C154.184 115.344 159.762 136.621 164.895 156.194C168.024 168.128 170.978 179.401 174.157 189.764C174.3 190.222 175.053 190.36 175.842 190.075C176.632 189.79 177.159 189.187 177.016 188.729C173.841 178.385 170.889 167.123 167.763 155.199C160.487 127.451 152.32 96.2944 139.1 69.4086C133.38 51.7038 126.353 32.8729 117.785 12.2791C117.603 11.8381 116.819 11.7329 116.039 12.0424C115.264 12.3501 114.783 12.9518 114.954 13.3924C114.956 13.3965 114.957 13.3992 114.959 13.4032C120.939 27.78 126.169 41.2951 130.726 54.1654C113.681 26.4797 91.8228 9.5239 64.142 2.44121C55.5553 0.243789 46.3434 -0.267409 37.501 0.96157C29.2697 2.10445 21.7418 4.73393 16.3032 8.36505C12.1041 11.1692 8.6745 14.6932 6.11277 18.8403L6.11224 18.8389ZM36.9905 2.87237C45.3503 1.71042 54.1076 2.20663 62.3136 4.30622C92.2175 11.958 115.268 31.4072 132.782 63.7644C133.982 65.9828 135.144 68.2374 136.27 70.5233C137.875 75.4965 139.38 80.3803 140.783 85.1894C148.486 111.559 153.441 136.18 155.933 160.459C157.285 173.642 155.399 185.083 150.324 194.466C145.128 204.071 136.715 211.188 125.317 215.621C118.107 218.425 111.056 219.756 104.358 219.577C98.2652 219.413 92.2986 218.002 86.6253 215.38C77.2518 211.047 68.4506 203.334 60.4695 192.45C44.0219 170.021 28.4839 140.589 17.8397 111.705C12.1374 96.2334 8.0678 81.568 5.74522 68.1147C3.22401 53.5214 2.834 40.7085 4.58066 30.0328C5.94328 21.712 10.8034 14.2163 17.9174 9.46644C22.7276 6.25452 29.5004 3.91411 36.9905 2.87237Z" fill="#B50015"/>
</svg>
