<?xml version="1.0" encoding="UTF-8" standalone="no"?>
<svg
   width="178"
   height="222"
   viewBox="0 0 178 222"
   fill="none"
   version="1.1"
   id="svg1"
   sodipodi:docname="Vector.svg"
   inkscape:version="1.4 (86a8ad7, 2024-10-11)"
   xmlns:inkscape="http://www.inkscape.org/namespaces/inkscape"
   xmlns:sodipodi="http://sodipodi.sourceforge.net/DTD/sodipodi-0.dtd"
   xmlns="http://www.w3.org/2000/svg"
   xmlns:svg="http://www.w3.org/2000/svg">
  <defs
     id="defs1">
    <inkscape:path-effect
       effect="bspline"
       id="path-effect2"
       is_visible="true"
       lpeversion="1.3"
       weight="33.333333"
       steps="2"
       helper_size="0"
       apply_no_weight="true"
       apply_with_weight="true"
       only_selected="false"
       uniform="false" />
  </defs>
  <sodipodi:namedview
     id="namedview1"
     pagecolor="#ffffff"
     bordercolor="#000000"
     borderopacity="0.25"
     inkscape:showpageshadow="2"
     inkscape:pageopacity="0.0"
     inkscape:pagecheckerboard="0"
     inkscape:deskcolor="#d1d1d1"
     inkscape:zoom="2.5704287"
     inkscape:cx="42.210858"
     inkscape:cy="118.85177"
     inkscape:window-width="1920"
     inkscape:window-height="1009"
     inkscape:window-x="1912"
     inkscape:window-y="-8"
     inkscape:window-maximized="1"
     inkscape:current-layer="svg1" />
  <path
     style="display:inline;fill:none;fill-opacity:1;stroke:#b50015;stroke-width:2.4;stroke-opacity:1;stroke-linejoin:round;stroke-linecap:round;stroke-dasharray:none"
     d="m 115.9826,12.303395 c 1.19954,2.836751 2.39908,5.673503 3.858,9.231643 1.45892,3.55814 3.17714,7.837494 4.79816,11.938665 1.62101,4.101171 3.14472,8.023914 4.77384,12.514137 1.62913,4.490223 3.36357,9.547644 4.71711,13.567755 1.35355,4.020111 2.32613,7.002693 3.33116,10.147467 1.00503,3.144775 2.04245,6.45155 3.33927,10.698623 1.29681,4.247074 2.85294,9.434173 4.52259,15.72373 1.66965,6.289555 3.45271,13.681175 4.68581,19.117885 1.2331,5.43671 1.91618,8.91823 2.71622,13.31831 0.80004,4.40008 1.717,9.71844 2.5996,15.83932 0.8826,6.12089 1.73079,13.04393 2.09758,18.13318 0.36678,5.08925 0.25216,8.34445 -0.0573,11.72584 -0.30949,3.38138 -0.81381,6.88875 -1.6391,9.97211 -0.82529,3.08336 -1.97149,5.74254 -3.22088,8.20694 -1.2494,2.46439 -2.60191,4.73386 -4.08055,6.76269 -1.47864,2.02883 -3.08332,3.8169 -4.97461,5.63941 -1.89128,1.8225 -4.06906,3.67935 -5.99473,5.10067 -1.92566,1.42132 -3.59911,2.40705 -5.63941,3.46159 -2.0403,1.05453 -4.44731,2.17781 -6.9461,3.14064 -2.49878,0.96283 -5.08919,1.76517 -7.63383,2.38413 -2.54463,0.61897 -5.04334,1.05452 -7.64529,1.28377 -2.60195,0.22925 -5.30697,0.25219 -6.92315,0.24073 -1.61617,-0.0115 -2.14343,-0.0573 -3.140654,-0.20632 -0.997225,-0.14901 -2.464357,-0.40117 -4.04616,-0.74504 -1.581803,-0.34387 -3.278174,-0.77943 -4.951673,-1.32962 -1.673499,-0.55019 -3.324022,-1.21499 -5.559179,-2.3383 -2.235158,-1.12331 -5.054807,-2.70507 -7.312879,-4.17224 -2.258071,-1.46718 -3.954442,-2.81969 -5.94889,-4.59635 -1.994447,-1.77667 -4.286843,-3.97737 -6.510532,-6.45323 -2.22369,-2.47587 -4.378539,-5.22674 -6.418831,-7.96624 -2.040292,-2.73949 -3.965903,-5.46744 -6.85395,-9.93508 -2.888048,-4.46764 -6.738337,-10.67466 -10.244028,-16.6961 -3.505691,-6.02143 -6.666581,-11.85692 -9.462831,-17.43321 -2.796251,-5.5763 -5.227702,-10.89307 -7.533405,-16.17348 C 22.378256,127.127 20.198442,121.88327 18.076895,116.36136 15.955347,110.83944 13.892192,105.03968 12.092608,99.446058 10.293025,93.852435 8.7571225,88.465305 7.4274968,83.078014 6.0978711,77.690723 4.9745973,72.303594 4.195163,67.798911 3.4157286,63.294228 2.9801735,59.672243 2.6706921,56.623271 2.3612107,53.5743 2.1778191,51.098513 2.0861214,48.622652 1.9944238,46.146791 1.9944238,43.671004 2.0975857,40.977357 2.2007476,38.283709 2.4070632,35.372367 2.693622,32.953823 2.9801808,30.535278 3.3469642,28.609665 3.8971574,26.75277 4.4473506,24.895875 5.180917,23.107807 5.9259679,21.583321 6.6710189,20.058835 7.4275096,18.798017 8.2184098,17.651787 9.00931,16.505556 9.8345722,15.473978 10.751559,14.465294 11.668546,13.45661 12.6772,12.47088 13.880745,11.450733 15.084291,10.430586 16.482652,9.3760842 17.892517,8.4705624 19.302383,7.5650405 20.723668,6.80855 22.271082,6.1093491 23.818497,5.4101482 25.491946,4.7682775 27.09667,4.2295495 c 1.604724,-0.5387279 3.140629,-0.9742832 5.066302,-1.3869264 1.925674,-0.4126433 4.240993,-0.8023504 6.30994,-1.0602514 2.068946,-0.2579009 3.8914,-0.3839826 5.736834,-0.4470248 1.845434,-0.063042 3.713736,-0.063042 5.685256,0.034389 1.97152,0.097431 4.046138,0.2922843 6.023387,0.5501872 1.97725,0.2579029 3.857014,0.5788381 6.166676,1.1404943 2.309662,0.5616561 5.049074,1.3639944 7.553589,2.1663568 2.504514,0.8023624 4.773985,1.6047007 7.226924,2.6133869 2.452938,1.0086863 5.089193,2.2236563 7.725527,3.5762113 2.636333,1.352555 5.272588,2.842612 7.920384,4.561962 2.647797,1.71935 5.306976,3.667886 8.206941,6.017664 2.89997,2.349779 6.04055,5.100653 8.81114,7.726189 2.77059,2.625535 5.17103,5.125576 7.63568,8.093918 2.46465,2.968341 4.99336,6.404793 7.34383,9.760299 2.35048,3.355506 4.52257,6.629859 7.22967,11.509136 2.70711,4.879277 5.94905,11.36315 8.99656,18.187635 3.04751,6.824484 5.90041,13.989163 8.4373,20.919009 2.53689,6.929846 4.75762,13.624446 7.07706,21.244786 2.31944,7.62034 4.73746,16.16595 7.0125,24.45069 2.27505,8.28474 4.40698,16.30813 6.45873,23.9191 2.05176,7.61098 4.02321,14.8091 5.99471,22.00737"
     id="path2"
     inkscape:path-effect="#path-effect2"
     inkscape:original-d="m 115.9826,12.303395 c 1.19954,2.836751 2.39908,5.673503 3.59862,8.510254 1.7183,4.279527 3.43652,8.558883 5.15478,12.838325 1.52377,3.9229 3.04748,7.845643 4.57122,11.768465 1.73451,5.057623 3.46895,10.115044 5.20342,15.172566 0.97262,2.982701 1.9452,5.965283 2.9178,8.947924 1.03746,3.306908 2.07488,6.613683 3.11232,9.920524 1.55619,5.187306 3.11232,10.374405 4.66848,15.561607 1.78314,7.39191 3.5662,14.78353 5.3493,22.17529 0.6831,3.48166 1.36618,6.96318 2.04927,10.44477 0.91699,5.31857 1.83395,10.63693 2.75093,15.95539 0.84822,6.92331 1.6964,13.84635 2.54461,20.76952 -0.11463,3.25533 -0.22925,6.51053 -0.34387,9.7658 -0.50435,3.5075 -1.00867,7.01487 -1.51301,10.5223 -1.14624,2.65929 -2.29244,5.31847 -3.43866,7.9777 -1.35257,2.26956 -2.70508,4.53903 -4.05762,6.80855 -1.60474,1.78814 -3.20942,3.57621 -4.81413,5.36431 -2.17786,1.85692 -4.35564,3.71376 -6.53346,5.57063 -1.67351,0.98577 -3.34696,1.9715 -5.02044,2.95725 -2.40712,1.12332 -4.81413,2.2466 -7.22119,3.36989 -2.59051,0.80237 -5.18092,1.60471 -7.77138,2.40706 -2.49881,0.43558 -4.99752,0.87113 -7.49628,1.3067 -2.70514,0.0229 -5.41016,0.0458 -8.11524,0.0688 -0.52727,-0.0459 -1.05453,-0.0917 -1.581787,-0.13755 -1.467192,-0.25217 -2.934325,-0.50433 -4.401487,-0.7565 -1.696441,-0.43558 -3.392813,-0.87113 -5.08922,-1.30669 -1.65059,-0.66483 -3.301115,-1.32962 -4.951673,-1.99443 -2.819759,-1.58181 -5.639405,-3.16357 -8.459107,-4.74535 -1.696441,-1.35257 -3.392813,-2.70508 -5.08922,-4.05762 -2.292487,-2.20079 -4.584882,-4.40149 -6.877323,-6.60223 -2.154938,-2.75099 -4.309789,-5.50186 -6.464684,-8.25279 -1.925689,-2.72806 -3.851301,-5.45601 -5.776952,-8.18402 -3.850443,-6.20727 -7.700733,-12.41429 -11.5511,-18.62144 -3.161014,-5.83572 -6.321902,-11.67121 -9.482854,-17.50681 -2.431549,-5.31699 -4.863002,-10.63376 -7.294503,-15.95064 -2.179901,-5.24395 -4.359715,-10.48768 -6.539573,-15.73151 -2.063238,-5.8 -4.126394,-11.59976 -6.189591,-17.399633 C 10.29303,93.852433 8.7571252,88.465304 7.2211896,83.078067 6.097871,77.690723 4.9745973,72.303594 3.8513011,66.916357 3.4157286,63.294228 2.9801735,59.672243 2.5446097,56.050186 2.3612107,53.5743 2.1778191,51.098513 1.9944238,48.622677 c 0,-2.475886 0,-4.951673 0,-7.42751 0.2063238,-2.911458 0.4126394,-5.8228 0.6189591,-8.7342 0.3667979,-1.925689 0.7335812,-3.851302 1.1003718,-5.776952 0.7335958,-1.78814 1.4671623,-3.576208 2.2007434,-5.364312 0.7565208,-1.260868 1.5130112,-2.521686 2.2695168,-3.782528 0.8252953,-1.031619 1.6505576,-2.063197 2.4758361,-3.094796 1.008695,-0.985769 2.017349,-1.971499 3.026023,-2.957249 1.398417,-1.054544 2.796778,-2.1090457 4.195167,-3.1635687 1.421342,-0.7565207 2.842627,-1.5130111 4.26394,-2.2695167 1.673516,-0.6418963 3.346965,-1.283767 5.020447,-1.9256505 1.535966,-0.4355726 3.071871,-0.8711277 4.607806,-1.3066915 2.315412,-0.3897228 4.630731,-0.77943 6.946097,-1.169145 1.822527,-0.1260868 3.644981,-0.2521685 5.467472,-0.3782528 1.868377,0 3.736679,0 5.605019,0 2.0747,0.1948614 4.149318,0.389715 6.223977,0.5845725 1.87984,0.3209482 3.759604,0.6418835 5.639406,0.9628253 2.739522,0.8023705 5.478934,1.6047088 8.218401,2.4070632 2.269562,0.8023705 4.539033,1.6047088 6.80855,2.4070632 2.63636,1.2150181 5.272615,2.429988 7.908922,3.644981 2.63636,1.490117 5.272615,2.980174 7.908922,4.470261 2.659285,1.948614 5.318464,3.89715 7.9777,5.845725 3.1407,2.750984 6.28128,5.501858 9.42193,8.252788 2.40053,2.50014 4.80097,5.000181 7.20146,7.500272 2.52881,3.43659 5.05752,6.873042 7.58628,10.309564 2.17219,3.274487 4.34428,6.548843 6.51642,9.823264 3.24207,6.484132 6.48401,12.968005 9.72601,19.452008 2.85302,7.164966 5.70592,14.329646 8.55888,21.494469 2.22082,6.694869 4.44154,13.389469 6.66232,20.084199 2.41811,8.54595 4.83613,17.09156 7.2542,25.63734 2.13202,8.0237 4.26395,16.04709 6.39592,24.07063 1.97153,7.19841 3.94299,14.39653 5.91449,21.5948" />
</svg>
