<svg width="48" height="48" viewBox="0 0 48 48" fill="none" xmlns="http://www.w3.org/2000/svg">
<circle cx="24" cy="24" r="23.5" stroke="#D3D3D3" stroke-dasharray="1 1"/>
<path d="M19.6019 22.008C19.6801 21.8454 19.719 21.7069 19.7545 21.5109C19.7605 21.4798 19.7608 21.4487 19.7649 21.4176C19.7919 21.4342 19.8164 21.4531 19.8449 21.4676C20.5802 21.8632 21.3963 21.7743 21.6679 21.2694C21.9387 20.7652 21.5615 20.0358 20.8258 19.6398C20.7981 19.6246 20.7692 19.6154 20.7406 19.6017C20.7643 19.5805 20.7899 19.5639 20.8125 19.5416C21.416 18.9634 21.5834 18.1606 21.1881 17.7465C20.7914 17.3327 19.9812 17.4657 19.3778 18.0439C19.3548 18.0665 19.3367 18.091 19.3144 18.1136C19.3022 18.0847 19.2937 18.0551 19.2792 18.0262C18.9166 17.2745 18.2039 16.8663 17.6882 17.1153C17.1725 17.3642 17.0481 18.1758 17.4115 18.9286C17.4256 18.9575 17.443 18.9823 17.4578 19.0097C17.4267 19.0127 17.3959 19.0112 17.3644 19.0164C16.5369 19.1293 15.9286 19.6806 16.0068 20.2484C16.0838 20.8156 16.8173 21.1846 17.6445 21.0719C17.676 21.0675 17.706 21.0582 17.7367 21.0523C17.7301 21.0834 17.7193 21.1123 17.7134 21.1434C17.6549 21.4676 17.6719 21.7424 17.7486 22.0088" stroke="#1D2123" stroke-width="0.5" stroke-miterlimit="10" stroke-linecap="round" stroke-linejoin="round"/>
<path d="M20.0105 18.878C19.9575 18.8225 19.8704 18.8202 19.8141 18.8736L19.5152 19.1599C19.3033 18.9977 19.0251 18.9399 18.761 19.0173L18.5835 18.6506C18.5502 18.5817 18.4672 18.5528 18.3979 18.5861C18.3287 18.6195 18.2994 18.7024 18.3331 18.7721L18.5105 19.1381C18.2857 19.2966 18.1575 19.5511 18.1527 19.8175L17.7422 19.873C17.6659 19.883 17.6137 19.9534 17.6233 20.0294C17.6337 20.1053 17.7041 20.159 17.7797 20.1479L18.1938 20.0916C18.206 20.1279 18.2164 20.1646 18.2331 20.2001C18.335 20.4113 18.5139 20.5613 18.7195 20.6328L18.6439 21.051C18.6306 21.127 18.6809 21.1992 18.7565 21.2133C18.7858 21.2185 18.8154 21.214 18.8413 21.2018C18.8802 21.1829 18.9099 21.1462 18.9177 21.1007L18.994 20.6773C19.1203 20.6787 19.2474 20.655 19.3685 20.5961C19.4893 20.5384 19.5874 20.4528 19.6648 20.3539L20.0438 20.5572C20.0842 20.5795 20.1312 20.5791 20.1705 20.5602C20.1961 20.548 20.2179 20.5276 20.2327 20.5009C20.2687 20.4335 20.2431 20.3491 20.1761 20.3127L19.8008 20.1116C19.8723 19.906 19.8667 19.6723 19.7645 19.4611C19.7471 19.4255 19.7256 19.3952 19.7045 19.3633L20.006 19.074C20.0616 19.0214 20.0638 18.934 20.0105 18.878ZM19.1873 20.2224C18.9717 20.3265 18.7121 20.2353 18.608 20.0197C18.5035 19.8034 18.5943 19.5445 18.8102 19.4396C19.0269 19.3355 19.2859 19.4267 19.39 19.6422C19.4944 19.8578 19.4041 20.1175 19.1873 20.2224Z" fill="#1D2123"/>
<path d="M26.2883 21.9992C26.7473 21.6569 26.7155 20.8371 26.2176 20.1666C26.1987 20.1407 26.1768 20.1203 26.1565 20.0951C26.1868 20.0866 26.2168 20.0822 26.2476 20.0718C27.0389 19.804 27.5315 19.1479 27.3489 18.6052C27.1655 18.0625 26.3758 17.8391 25.5845 18.1058C25.5538 18.1158 25.5275 18.131 25.4967 18.1421C25.4982 18.1103 25.5034 18.0807 25.5026 18.0481C25.4934 17.2131 25.0211 16.5418 24.4491 16.5474C23.8757 16.5548 23.4193 17.2361 23.4285 18.0718C23.4289 18.1036 23.4348 18.1333 23.4363 18.1651C23.4063 18.1544 23.3793 18.1407 23.3489 18.131C22.5513 17.8821 21.7667 18.1229 21.596 18.67C21.4252 19.2164 21.9323 19.8618 22.7299 20.1107C22.7606 20.1207 22.791 20.1251 22.821 20.1325C22.8017 20.1577 22.7803 20.1796 22.7617 20.2055C22.2783 20.8871 22.2339 21.6765 22.701 22.0077" stroke="#1D2123" stroke-width="0.5" stroke-miterlimit="10" stroke-linecap="round" stroke-linejoin="round"/>
<path d="M23.7924 22.008C24.0231 21.8758 24.2721 21.6613 24.4529 21.4053C24.4718 21.3801 24.4847 21.3524 24.5025 21.3257C24.5195 21.3516 24.534 21.3787 24.5536 21.4046C24.7674 21.6917 24.9915 21.8858 25.2601 22.008" stroke="#1D2123" stroke-width="0.5" stroke-miterlimit="10" stroke-linecap="round" stroke-linejoin="round"/>
<path d="M25.8035 19.1296C25.7787 19.0574 25.7009 19.0181 25.6268 19.0429L25.2345 19.1752C25.1112 18.9385 24.8841 18.7684 24.6122 18.7258L24.6074 18.3191C24.6066 18.2424 24.5437 18.1809 24.4666 18.1816C24.3892 18.1831 24.3284 18.2454 24.3292 18.3228L24.334 18.7295C24.0639 18.7773 23.8387 18.9529 23.722 19.1926L23.3268 19.0689C23.2534 19.0455 23.1764 19.087 23.1526 19.16C23.1297 19.233 23.1704 19.3111 23.2434 19.3337L23.6424 19.4582C23.6383 19.4971 23.6316 19.5334 23.6327 19.573C23.6353 19.8075 23.7331 20.0194 23.8891 20.1713L23.6424 20.518C23.599 20.581 23.6138 20.6677 23.6765 20.7118C23.7009 20.7292 23.7294 20.7369 23.7583 20.7369C23.8013 20.7377 23.8435 20.7166 23.8702 20.6784L24.1191 20.3276C24.2332 20.3824 24.3581 20.415 24.4922 20.4136C24.627 20.4121 24.7511 20.3765 24.8637 20.3195L25.1204 20.6647C25.1482 20.7018 25.1908 20.721 25.2338 20.7203C25.2616 20.7203 25.2908 20.7114 25.3149 20.6929C25.3768 20.6473 25.389 20.5606 25.3438 20.4991L25.0904 20.1576C25.2416 20.0027 25.3357 19.7886 25.3334 19.5534C25.332 19.5145 25.3257 19.4767 25.3201 19.4389L25.7165 19.3059C25.7887 19.2815 25.8276 19.2026 25.8035 19.1296ZM24.4874 19.9979C24.248 20.0009 24.051 19.8083 24.048 19.5682C24.045 19.3289 24.2377 19.1318 24.4773 19.1289C24.7178 19.1266 24.9141 19.3185 24.9174 19.5586C24.9197 19.7982 24.7278 19.995 24.4874 19.9979Z" fill="#1D2123"/>
<path d="M31.369 22.0081C31.4861 21.6847 31.4753 21.3302 31.3497 20.9105C31.3408 20.8793 31.3268 20.8527 31.3168 20.8223C31.3483 20.8245 31.3775 20.8308 31.4101 20.8308C32.2447 20.8512 32.933 20.4033 32.9467 19.8302C32.9601 19.2572 32.2944 18.7774 31.459 18.7574C31.4275 18.7567 31.3979 18.7611 31.3657 18.7619C31.3775 18.7323 31.3927 18.7063 31.4031 18.6759C31.6798 17.888 31.4664 17.0949 30.9271 16.9049C30.3855 16.7152 29.7231 17.2001 29.4468 17.988C29.436 18.0184 29.4308 18.0488 29.4216 18.0792C29.3975 18.0581 29.3764 18.0366 29.3516 18.0169C28.687 17.5098 27.8668 17.4679 27.5197 17.9228C27.1723 18.3781 27.4275 19.1586 28.0921 19.665C28.1176 19.6847 28.145 19.6991 28.1706 19.7165C28.1439 19.7339 28.1158 19.7469 28.0902 19.765C27.4019 20.2403 27.1089 21.0064 27.4353 21.4776C27.7602 21.9492 28.5811 21.9466 29.2682 21.4717C29.2949 21.4535 29.3164 21.432 29.3419 21.4124C29.3497 21.4435 29.3527 21.4746 29.3623 21.505C29.4223 21.7047 29.4846 21.851 29.5864 22.0084" stroke="#1D2123" stroke-width="0.5" stroke-miterlimit="10" stroke-linecap="round" stroke-linejoin="round"/>
<path d="M30.3884 18.4452C30.3166 18.42 30.2373 18.4566 30.211 18.5304L30.0739 18.9204C29.8116 18.8719 29.5375 18.9464 29.3375 19.1346L29.0137 18.8878C28.9526 18.8415 28.8659 18.853 28.8189 18.9138C28.7718 18.9753 28.784 19.062 28.8448 19.109L29.1682 19.3557C29.04 19.598 29.0396 19.8832 29.1567 20.1233L28.8152 20.3585C28.7518 20.4018 28.7366 20.4882 28.7796 20.5519C28.8237 20.6148 28.91 20.6308 28.9726 20.5867L29.3164 20.35C29.3438 20.3767 29.3697 20.4041 29.4012 20.4281C29.5879 20.57 29.8139 20.6234 30.0298 20.5945L30.1521 21.0027C30.1743 21.0749 30.2514 21.1172 30.3251 21.0953C30.354 21.0872 30.378 21.0694 30.3955 21.0468C30.4221 21.0127 30.4321 20.9664 30.4177 20.9231L30.2947 20.51C30.4088 20.4545 30.511 20.3755 30.5933 20.2692C30.674 20.1622 30.7237 20.0421 30.7474 19.9184L31.1775 19.9292C31.2234 19.9292 31.2653 19.908 31.2912 19.8743C31.3086 19.8521 31.3197 19.8236 31.3201 19.7932C31.3216 19.7165 31.2608 19.6528 31.1845 19.6513L30.7592 19.6406C30.7307 19.425 30.6196 19.2201 30.4332 19.0771C30.4021 19.0538 30.3684 19.036 30.3351 19.0171L30.4736 18.6226C30.4988 18.5504 30.461 18.4715 30.3884 18.4452ZM30.2621 20.017C30.1165 20.2074 29.8439 20.2433 29.6527 20.0981C29.4619 19.9525 29.426 19.6799 29.5709 19.4894C29.7176 19.2976 29.9895 19.2624 30.1802 19.4076C30.3706 19.5532 30.4077 19.8258 30.2621 20.017Z" fill="#1D2123"/>
<path d="M21.9409 12.0139C21.3782 11.9024 20.7911 12.4754 20.6284 13.2945C20.6218 13.3263 20.621 13.3567 20.6159 13.3886C20.5888 13.3712 20.5651 13.3515 20.5381 13.3371C19.8087 12.9281 18.9904 13.0022 18.7107 13.5019C18.4306 14.0013 18.7944 14.7377 19.5231 15.1463C19.5508 15.1615 19.5794 15.1715 19.6079 15.1852C19.5838 15.2063 19.5582 15.223 19.5345 15.2445C18.9211 15.8116 18.7388 16.6118 19.1285 17.0323C19.5168 17.4527 20.3288 17.3345 20.9422 16.7681C20.9659 16.7463 20.9844 16.7226 21.0067 16.6996C21.0189 16.7292 21.0259 16.7596 21.0404 16.7878C21.3893 17.5468 22.0947 17.9672 22.6148 17.7276C23.1349 17.4883 23.273 16.6777 22.9241 15.9194C22.9107 15.8905 22.893 15.865 22.8785 15.8368C22.9104 15.8346 22.94 15.8361 22.973 15.8324C23.8017 15.7339 24.4199 15.1941 24.3532 14.6255C24.2862 14.0561 23.5586 13.6749 22.7292 13.7731C22.6974 13.7761 22.6692 13.7838 22.6377 13.7898C22.6451 13.7587 22.6562 13.7305 22.6618 13.6986C22.8244 12.8807 22.5025 12.1261 21.9409 12.0139Z" stroke="#1D2123" stroke-width="0.5" stroke-miterlimit="10" stroke-linecap="round" stroke-linejoin="round"/>
<path d="M21.6246 13.6156C21.5494 13.5996 21.4768 13.6482 21.4612 13.7249L21.3797 14.1309C21.1137 14.1201 20.8526 14.232 20.6803 14.4465L20.3254 14.2475C20.258 14.2098 20.1739 14.2346 20.1354 14.3013C20.098 14.3687 20.1228 14.4524 20.1895 14.4909L20.5432 14.6891C20.4517 14.9473 20.4914 15.2303 20.6407 15.4511L20.3358 15.7319C20.2791 15.7841 20.2769 15.8716 20.3284 15.9286C20.3802 15.9842 20.468 15.9886 20.524 15.9357L20.8311 15.6526C20.8626 15.676 20.8915 15.6982 20.9255 15.7186C21.1304 15.833 21.363 15.8538 21.5723 15.7945L21.7498 16.1809C21.7824 16.2505 21.8642 16.2802 21.9346 16.2483C21.9617 16.2368 21.9832 16.215 21.9969 16.1905C22.0183 16.1531 22.0224 16.1061 22.0017 16.0646L21.822 15.673C21.9265 15.6023 22.0169 15.5097 22.0828 15.3922C22.148 15.2752 22.1799 15.1492 22.1862 15.024L22.6133 14.974C22.6592 14.9673 22.6977 14.9406 22.7181 14.9032C22.7322 14.8788 22.7392 14.8495 22.7351 14.8184C22.7266 14.7432 22.657 14.688 22.5814 14.6976L22.1591 14.7469C22.1002 14.538 21.9609 14.3498 21.7561 14.2353C21.7216 14.2164 21.6861 14.2035 21.6509 14.189L21.7324 13.7797C21.7483 13.7034 21.7001 13.63 21.6246 13.6156ZM21.7205 15.1885C21.6038 15.3981 21.3393 15.4722 21.1297 15.3548C20.92 15.2377 20.8452 14.9729 20.9626 14.7636C21.08 14.5539 21.3453 14.4798 21.5538 14.5965C21.7627 14.7147 21.8383 14.9788 21.7205 15.1885Z" fill="#1D2123"/>
<path d="M26.7011 12.051C26.1451 12.1943 25.862 12.9641 26.0698 13.7728C26.0776 13.8046 26.0895 13.8328 26.0987 13.8632C26.0665 13.8594 26.0365 13.8524 26.0058 13.8509C25.1719 13.7968 24.4655 14.2162 24.4288 14.787C24.3914 15.3586 25.0374 15.8665 25.8709 15.9202C25.9035 15.9224 25.9335 15.9187 25.9646 15.9195C25.9528 15.9484 25.9361 15.9747 25.9246 16.0043C25.6157 16.7815 25.7961 17.5817 26.3303 17.7928C26.8611 18.0047 27.5431 17.5476 27.8517 16.7719C27.8635 16.7422 27.8702 16.7126 27.8802 16.6822C27.9039 16.7033 27.9239 16.727 27.9487 16.7474C28.5903 17.2812 29.409 17.3568 29.7743 16.916C30.141 16.4751 29.9162 15.6839 29.2731 15.1512C29.249 15.1301 29.2212 15.1156 29.1968 15.0964C29.2245 15.0812 29.2519 15.0689 29.2801 15.0515C29.9858 14.6052 30.3103 13.8513 30.0047 13.3671C29.698 12.883 28.8778 12.8526 28.1714 13.299C28.1443 13.3149 28.1221 13.3353 28.0962 13.3538C28.0888 13.3227 28.0869 13.2923 28.0784 13.2604C27.8713 12.4525 27.2553 11.9106 26.7011 12.051Z" stroke="#1D2123" stroke-width="0.5" stroke-miterlimit="10" stroke-linecap="round" stroke-linejoin="round"/>
<path d="M27.1067 13.6325C27.0319 13.6514 26.9874 13.7258 27.0063 13.8018L27.1078 14.2033C26.863 14.3082 26.6763 14.5215 26.6129 14.7894L26.2073 14.7634C26.1302 14.7582 26.0643 14.8171 26.0591 14.8935C26.0543 14.9701 26.1128 15.0361 26.1895 15.0413L26.5951 15.0672C26.6233 15.3398 26.7811 15.578 27.0111 15.7125L26.857 16.0974C26.8289 16.1689 26.8645 16.2485 26.9348 16.2774C27.006 16.3063 27.0878 16.2715 27.1156 16.2L27.2705 15.8122C27.3082 15.8192 27.3446 15.8273 27.3838 15.8303C27.619 15.8455 27.8365 15.7636 27.9995 15.6199L28.3266 15.8925C28.3862 15.9403 28.4729 15.9322 28.5226 15.8729C28.5422 15.8507 28.5526 15.8222 28.554 15.794C28.557 15.7507 28.5411 15.7066 28.504 15.6781L28.1721 15.4024C28.2362 15.2932 28.2781 15.1709 28.2866 15.0372C28.2951 14.9035 28.2695 14.776 28.2206 14.6593L28.5852 14.43C28.6241 14.4048 28.6466 14.3641 28.6492 14.3208C28.6515 14.2933 28.6448 14.2637 28.6281 14.2374C28.5881 14.1729 28.5014 14.1541 28.437 14.1948L28.0769 14.4211C27.9332 14.2581 27.7272 14.1485 27.4935 14.1341C27.4546 14.1311 27.4168 14.1348 27.3783 14.1377L27.276 13.7325C27.256 13.6588 27.1801 13.6136 27.1067 13.6325ZM27.8724 15.0109C27.8569 15.2498 27.6502 15.4313 27.4109 15.4154C27.1719 15.4002 26.9893 15.1939 27.0045 14.9546C27.02 14.7145 27.2279 14.5334 27.4664 14.5486C27.7057 14.5645 27.8872 14.7708 27.8724 15.0109Z" fill="#1D2123"/>
<path d="M23.1063 32.1399L21.0537 35.1331C21.0537 35.1331 22.461 35.9999 24.2973 35.9999C26.1336 35.9999 27.5409 35.1331 27.5409 35.1331L25.4886 32.1399" stroke="#1D2123" stroke-width="0.5" stroke-miterlimit="10" stroke-linecap="round" stroke-linejoin="round"/>
<path d="M26.8977 29.1417L31.7894 22.0081H16.8062L21.6971 29.1417" stroke="#1D2123" stroke-width="0.5" stroke-miterlimit="10" stroke-linecap="round" stroke-linejoin="round"/>
<path d="M24.2972 31.5553C24.2972 31.5553 25.539 28.2032 27.3601 29.3412C29.1811 30.4796 27.0496 33.5624 24.2972 31.5553Z" stroke="#1D2123" stroke-width="0.5" stroke-miterlimit="10" stroke-linecap="round" stroke-linejoin="round"/>
<path d="M24.2973 31.5553C24.2973 31.5553 23.0556 28.2032 21.2345 29.3412C19.4138 30.4796 21.5453 33.5624 24.2973 31.5553Z" stroke="#1D2123" stroke-width="0.5" stroke-miterlimit="10" stroke-linecap="round" stroke-linejoin="round"/>
<path d="M24.2972 31.5552C24.2972 31.5552 25.3623 32.3965 25.4012 34.0797" stroke="#1D2123" stroke-width="0.5" stroke-miterlimit="10" stroke-linecap="round" stroke-linejoin="round"/>
<path d="M24.2976 31.5552C24.2976 31.5552 23.2326 32.3965 23.1937 34.0797" stroke="#1D2123" stroke-width="0.5" stroke-miterlimit="10" stroke-linecap="round" stroke-linejoin="round"/>
</svg>
