<svg width="48" height="48" viewBox="0 0 48 48" fill="none" xmlns="http://www.w3.org/2000/svg">
<circle cx="24" cy="24" r="23.5" stroke="#D3D3D3" stroke-dasharray="1 1"/>
<path d="M22.8226 18.7398C21.4805 18.7398 19.5018 18.5621 18.3817 17.6246C17.5083 16.8894 17.0248 16.0407 16.9853 15.1723C16.9508 14.3926 17.2715 13.6426 17.908 13.011C19.2748 11.6492 21.2239 11.6639 22.8719 13.0505C24.6434 14.5407 24.5348 18.1723 24.5299 18.3253C24.5249 18.5078 24.3868 18.6559 24.2042 18.6756C24.145 18.6806 23.5874 18.7398 22.8177 18.7398H22.8226ZM20.2666 12.7298C19.6005 12.7298 18.964 12.9962 18.4311 13.5291C17.9426 14.0176 17.7008 14.5752 17.7255 15.1426C17.7551 15.7989 18.1449 16.465 18.8603 17.067C20.1137 18.123 22.8621 18.0391 23.8095 17.9749C23.7947 17.0917 23.6368 14.6393 22.4131 13.613C21.7173 13.0258 20.9772 12.7347 20.2716 12.7347L20.2666 12.7298Z" fill="#221F1E"/>
<path d="M25.5168 18.7398C24.747 18.7398 24.1944 18.6806 24.1303 18.6756C23.9477 18.6559 23.8095 18.5078 23.8046 18.3253C23.7997 18.1723 23.6911 14.5407 25.4625 13.0505C27.1155 11.6639 29.0646 11.6492 30.4264 13.011C31.063 13.6475 31.3837 14.3926 31.3492 15.1723C31.3097 16.0407 30.8311 16.8894 29.9528 17.6246C28.8376 18.5621 26.854 18.7398 25.5119 18.7398H25.5168ZM24.5349 17.9749C25.4773 18.0391 28.2307 18.118 29.484 17.067C30.1995 16.465 30.5893 15.8038 30.6189 15.1426C30.6436 14.5752 30.3968 14.0176 29.9133 13.5291C28.8179 12.4386 27.2981 12.4682 25.9362 13.613C24.7076 14.6443 24.5546 17.0917 24.5349 17.9749Z" fill="#221F1E"/>
<path d="M21.0858 24.5474C20.8539 24.5474 20.622 24.5128 20.39 24.4388C19.8423 24.2612 19.3982 23.8714 19.1614 23.378C18.9443 22.9141 18.9245 22.396 19.1121 21.9223C19.5019 20.9157 20.7058 20.3877 21.7865 20.743C21.9789 20.8072 22.0825 21.0144 22.0184 21.2068C21.9542 21.3993 21.747 21.5029 21.5545 21.4388C20.8341 21.2019 20.0397 21.5375 19.7881 22.1888C19.6746 22.475 19.6894 22.7858 19.8177 23.0671C19.9657 23.3829 20.2469 23.6247 20.6121 23.7431C21.3276 23.975 22.1121 23.6493 22.3736 23.0079L23.8145 18.2068C23.8737 18.0143 24.076 17.9009 24.2684 17.9601C24.4608 18.0193 24.5743 18.2216 24.5151 18.414L23.0694 23.2299C23.0694 23.2299 23.0644 23.2497 23.0595 23.2595C22.7486 24.0539 21.9394 24.5474 21.0759 24.5474H21.0858Z" fill="#221F1E"/>
<path d="M27.2537 24.5474C26.3902 24.5474 25.5809 24.049 25.2701 23.2595C25.2701 23.2497 25.2651 23.2398 25.2602 23.2299L23.8144 18.414C23.7552 18.2216 23.8687 18.0143 24.0612 17.9601C24.2536 17.9009 24.4608 18.0143 24.5151 18.2068L25.9559 23.0079C26.2125 23.6493 27.002 23.9799 27.7175 23.7431C28.0777 23.6247 28.3589 23.3829 28.5119 23.0671C28.6451 22.7858 28.655 22.475 28.5415 22.1888C28.2899 21.5424 27.4954 21.2068 26.775 21.4388C26.5826 21.5029 26.3753 21.3993 26.3112 21.2068C26.2471 21.0144 26.3507 20.8072 26.5431 20.743C27.6287 20.3877 28.8277 20.9157 29.2175 21.9223C29.405 22.401 29.3853 22.9141 29.1682 23.378C28.9363 23.8714 28.4872 24.2563 27.9395 24.4388C27.7126 24.5128 27.4757 24.5474 27.2438 24.5474H27.2537Z" fill="#221F1E"/>
<path d="M33.979 36H14.3651C14.1628 36 14 35.8371 14 35.6348V26.1708C14 25.9685 14.1628 25.8057 14.3651 25.8057H33.979C34.1813 25.8057 34.3442 25.9685 34.3442 26.1708V35.6348C34.3442 35.8371 34.1813 36 33.979 36ZM14.7303 35.2697H33.6139V26.5409H14.7303V35.2697Z" fill="#221F1E"/>
<path d="M31.645 26.5411H16.699C16.4967 26.5411 16.3339 26.3783 16.3339 26.176V18.2169C16.3339 18.0146 16.4967 17.8518 16.699 17.8518H31.645C31.8474 17.8518 32.0102 18.0146 32.0102 18.2169V26.176C32.0102 26.3783 31.8474 26.5411 31.645 26.5411ZM17.0641 25.8059H31.2799V18.5772H17.0641V25.8059Z" fill="#221F1E"/>
<path d="M25.2354 36H23.1038C22.9015 36 22.7386 35.8372 22.7386 35.6349V18.2118C22.7386 18.0095 22.9015 17.8467 23.1038 17.8467H25.2354C25.4377 17.8467 25.6006 18.0095 25.6006 18.2118V35.6349C25.6006 35.8372 25.4377 36 25.2354 36ZM23.4689 35.2697H24.8703V18.577H23.4689V35.2697Z" fill="#221F1E"/>
</svg>
