<svg width="48" height="48" viewBox="0 0 48 48" fill="none" xmlns="http://www.w3.org/2000/svg">
<circle cx="24" cy="24" r="23.5" stroke="#D3D3D3" stroke-dasharray="1 1"/>
<path d="M26.674 17.8745C26.7036 14.6322 27.5695 12.8462 27.5793 12.8266C27.6581 12.6691 27.6039 12.4772 27.4514 12.3838C27.0283 12.1279 26.6002 12 26.1722 12C25.2817 12 24.6175 12.556 24.2681 12.9447C23.9139 12.556 23.2546 12 22.3641 12C21.936 12 21.508 12.1279 21.0849 12.3838C20.9324 12.4772 20.8782 12.6691 20.9569 12.8266C20.9668 12.8462 21.8278 14.6175 21.8622 17.8745C20.7503 18.6617 14 23.813 14 33.2153C14 33.7417 16.6962 34.7601 16.7208 34.77C18.2558 35.3309 20.8143 36 24.2681 36C27.722 36 30.2804 35.3309 31.8155 34.77C31.845 34.7601 34.5363 33.7417 34.5363 33.2153C34.5363 23.818 27.7909 18.6617 26.674 17.8745ZM21.6999 12.8266C21.9262 12.7282 22.1476 12.679 22.369 12.679C23.3333 12.679 23.9828 13.663 23.9877 13.6728C24.1107 13.8696 24.4354 13.8696 24.5584 13.6728C24.5633 13.663 25.203 12.679 26.1771 12.679C26.3936 12.679 26.6199 12.7282 26.8413 12.8266C26.5855 13.4711 26.0443 15.1341 26 17.7122H22.5461C22.5018 15.1341 21.9606 13.476 21.7048 12.8266H21.6999ZM24.2681 35.321C18.492 35.321 15.2989 33.4465 14.679 33.0431C14.7626 23.8868 21.4932 18.957 22.31 18.3911H26.2312C27.0431 18.952 33.7786 23.8721 33.8622 33.0431C33.2423 33.4465 30.0492 35.321 24.2731 35.321H24.2681Z" fill="#221F1E"/>
<path d="M27.3874 28.1279C26.5658 28.2755 25.9409 28.9938 25.9409 29.8597C25.9409 30.7257 26.5658 31.444 27.3874 31.5916C27.535 32.4133 28.2533 33.0381 29.1193 33.0381C29.9852 33.0381 30.7035 32.4133 30.8511 31.5916C31.6728 31.444 32.2976 30.7257 32.2976 29.8597C32.2976 28.9938 31.6728 28.2755 30.8511 28.1279C30.7035 27.3062 29.9852 26.6814 29.1193 26.6814C28.2533 26.6814 27.535 27.3062 27.3874 28.1279ZM29.1144 27.3604C29.7097 27.3604 30.1918 27.8425 30.1918 28.4379C30.1918 28.6248 30.3444 28.7773 30.5313 28.7773C31.1266 28.7773 31.6088 29.2595 31.6088 29.8548C31.6088 30.4502 31.1266 30.9372 30.5313 30.9372C30.3444 30.9372 30.1918 31.0898 30.1918 31.2767C30.1918 31.872 29.7097 32.3542 29.1144 32.3542C28.519 32.3542 28.0369 31.872 28.0369 31.2767C28.0369 31.0898 27.8843 30.9372 27.6974 30.9372C27.102 30.9372 26.6199 30.4502 26.6199 29.8548C26.6199 29.2595 27.102 28.7773 27.6974 28.7773C27.8843 28.7773 28.0369 28.6248 28.0369 28.4379C28.0369 27.8425 28.519 27.3604 29.1144 27.3604Z" fill="#221F1E"/>
<path d="M27.4465 29.85C27.4465 30.2978 27.7467 30.6815 28.155 30.8094C28.2829 31.2178 28.6618 31.5179 29.1144 31.5179C29.5671 31.5179 29.9459 31.2178 30.0738 30.8094C30.4822 30.6815 30.7823 30.3027 30.7823 29.85C30.7823 29.3974 30.4822 29.0185 30.0738 28.8906C29.9459 28.4823 29.5671 28.1821 29.1144 28.1821C28.6618 28.1821 28.2829 28.4823 28.155 28.8906C27.7467 29.0136 27.4465 29.3974 27.4465 29.85ZM28.4502 29.5253C28.6372 29.5253 28.7897 29.3728 28.7897 29.1858C28.7897 28.9989 28.9373 28.8611 29.1144 28.8611C29.2916 28.8611 29.4392 29.0087 29.4392 29.1858C29.4392 29.3728 29.5917 29.5253 29.7786 29.5253C29.9656 29.5253 30.1034 29.6729 30.1034 29.85C30.1034 30.0272 29.9558 30.1748 29.7786 30.1748C29.6015 30.1748 29.4392 30.3273 29.4392 30.5142C29.4392 30.7012 29.2916 30.839 29.1144 30.839C28.9373 30.839 28.7897 30.6914 28.7897 30.5142C28.7897 30.3371 28.6372 30.1748 28.4502 30.1748C28.2633 30.1748 28.1255 30.0272 28.1255 29.85C28.1255 29.6729 28.2731 29.5253 28.4502 29.5253Z" fill="#221F1E"/>
</svg>
