<svg width="48" height="48" viewBox="0 0 48 48" fill="none" xmlns="http://www.w3.org/2000/svg">
<path class="ring ring_man" d="M27.5924 28.2304C27.5924 34.6058 22.4233 39.7758 16.0462 39.7758C9.67251 39.7758 4.5 34.6058 4.5 28.2304C4.5 21.8534 9.67251 16.6834 16.0462 16.6834C22.4233 16.6834 27.5924 21.8525 27.5924 28.2304Z" stroke="#fff" stroke-miterlimit="10" stroke-linecap="round" stroke-linejoin="round"/>
<path class="ring ring_girl" d="M43.5 28.2304C43.5 34.6058 38.3309 39.7758 31.9538 39.7758C25.5801 39.7758 20.4076 34.6058 20.4076 28.2304C20.4076 21.8534 25.5801 16.6834 31.9538 16.6834C38.3309 16.6834 43.5 21.8525 43.5 28.2304Z" stroke="#fff" stroke-miterlimit="10" stroke-linecap="round" stroke-linejoin="round"/>
<path class="ring ring_girl_heart" d="M31.9519 16.683C32.6355 15.6066 36.6302 14.645 36.6302 11.523C36.6302 10.1308 35.5011 9 34.1081 9C33.1942 9 32.3951 9.48584 31.9519 10.2112C31.508 9.485 30.7089 9 29.7941 9C28.4028 9 27.2737 10.1308 27.2737 11.523C27.2737 14.6441 31.2667 15.6057 31.9519 16.683Z" stroke="#fff" stroke-miterlimit="10" stroke-linecap="round" stroke-linejoin="round"/>
</svg>
