<svg width="346" height="140" viewBox="0 0 346 140" fill="none" xmlns="http://www.w3.org/2000/svg">
<path d="M32.4452 78.1797C33.7714 80.5403 34.8444 83.0815 35.6641 85.8031C36.5047 88.5199 37.0704 91.2798 37.3614 94.0829C37.6523 96.8859 37.7521 99.6684 37.6606 102.43C37.5899 105.188 37.3379 107.966 36.9044 110.765C36.6962 112.108 36.4653 113.401 36.2117 114.645C35.9581 115.889 35.5237 117.526 34.9084 119.557C34.309 121.563 33.6383 123.267 32.8963 124.67C32.1751 126.069 31.2209 127.27 30.0337 128.275C28.8515 129.3 27.5701 129.768 26.1896 129.678C25.4762 129.628 24.801 129.415 24.164 129.04C23.5528 128.68 23.0226 128.247 22.5736 127.739C22.1454 127.227 21.742 126.588 21.3634 125.822C20.9898 125.078 20.6804 124.373 20.4352 123.707C20.2107 123.037 19.9953 122.266 19.7888 121.394C19.5983 120.497 19.4495 119.775 19.3424 119.231C19.2562 118.681 19.1527 118.059 19.032 117.364C18.7039 115.052 18.4659 112.565 18.318 109.904C17.8421 111.135 17.3471 112.238 16.833 113.215C16.3347 114.166 15.7654 115.002 15.1251 115.724C14.5055 116.441 13.8789 116.896 13.2452 117.09C12.6322 117.279 11.9821 117.126 11.2949 116.631C10.6078 116.136 9.9591 115.248 9.349 113.968C8.96065 113.161 8.61191 112.29 8.30278 111.354C8.01442 110.414 7.77985 109.516 7.5991 108.66C7.41343 107.783 7.25508 106.79 7.12406 105.681C7.00888 104.547 6.91773 103.56 6.85061 102.721C6.80424 101.877 6.76799 100.844 6.74186 99.6223C6.7365 98.3959 6.73576 97.4205 6.73964 96.6961C6.75936 95.946 6.77692 94.9553 6.79232 93.724C6.8028 92.4719 6.81434 91.5484 6.82695 90.9535C6.83025 90.6896 7.13699 90.7814 7.74716 91.2289C8.61899 91.8555 9.04423 92.4016 9.02289 92.867C8.90499 98.573 9.24816 104.236 10.0524 109.855C10.0622 109.896 10.0745 109.948 10.0893 110.011C10.0991 110.052 10.1089 110.094 10.1187 110.135C10.1237 110.156 10.1231 110.2 10.1171 110.267C10.1269 110.309 10.1368 110.35 10.1466 110.392C10.1564 110.433 10.1583 110.487 10.1523 110.555C10.1671 110.617 10.1793 110.669 10.1892 110.71C10.1941 110.731 10.2039 110.773 10.2187 110.835C10.3371 111.706 10.4376 112.362 10.5201 112.802C10.6184 113.218 10.7808 113.672 11.0075 114.167C11.25 114.636 11.5636 114.802 11.9482 114.668C12.3536 114.528 12.8556 114.102 13.4544 113.39C16.3173 109.555 17.9158 105.242 18.25 100.449C18.2708 99.6112 18.2872 99.125 18.2992 98.9906C18.3135 98.6803 18.6434 98.7776 19.2891 99.2824C20.0986 99.9238 20.5111 100.462 20.5263 100.897C20.3331 105.174 20.3934 109.456 20.7072 113.745C20.9539 117.194 21.1935 119.549 21.4261 120.809C22.2807 125.715 23.8514 127.766 26.1382 126.961C26.4605 126.841 26.8017 126.661 27.1617 126.423C27.8659 125.971 28.512 125.412 29.0998 124.747C29.7085 124.077 30.2455 123.336 30.711 122.524C31.1765 121.712 31.5956 120.89 31.9682 120.056C32.3567 119.197 32.6944 118.262 32.9813 117.251C33.2632 116.22 33.5081 115.263 33.7157 114.381C33.9441 113.494 34.1425 112.526 34.3109 111.478C34.4743 110.409 34.6123 109.51 34.7249 108.782C34.8326 108.033 34.931 107.198 35.0201 106.278C35.4038 102.899 35.5557 99.6513 35.4756 96.5353C35.3907 93.3985 34.9525 90.1589 34.1612 86.8167C33.3699 83.4744 32.2125 80.438 30.6892 77.7075C30.3904 77.1864 30.3729 76.9274 30.6368 76.9307C30.9788 76.8936 31.4439 77.1452 32.0322 77.6855C32.2267 77.8587 32.3643 78.0234 32.4452 78.1797ZM50.1696 107.92C50.262 107.569 50.6438 107.654 51.3152 108.175C52.0991 108.801 52.465 109.328 52.4131 109.757C52.3973 109.782 52.3918 109.806 52.3967 109.826C52.1366 110.765 51.714 111.665 51.1288 112.527C50.5388 113.368 49.8624 114.077 49.0997 114.652C48.3322 115.206 47.4829 115.462 46.5521 115.419C45.637 115.351 44.7605 114.89 43.9226 114.036C43.4321 113.538 43.0281 112.943 42.7108 112.251C42.4142 111.554 42.208 110.868 42.0923 110.194C41.9765 109.52 41.9187 108.767 41.9187 107.933C41.9396 107.095 41.9825 106.351 42.0476 105.7C42.1126 105.049 42.2173 104.333 42.3616 103.554C42.4173 103.234 42.7705 103.336 43.4211 103.862C44.2257 104.482 44.607 105.028 44.5649 105.498C44.0627 108.007 44.0961 110.509 44.6651 113.005C44.6651 113.005 44.6675 113.016 44.6725 113.036C44.6774 113.057 44.6798 113.067 44.6798 113.067L44.8888 113.117C45.0084 113.066 45.2313 113.036 45.5575 113.024C45.8787 112.992 46.1119 112.959 46.2573 112.924C47.2352 112.517 48.027 111.88 48.633 111.013C49.3328 110.08 49.8451 109.049 50.1696 107.92ZM42.4396 101.661C42.309 101.757 42.1356 101.766 41.9192 101.685C41.7029 101.605 41.4847 101.47 41.2645 101.281C41.0395 101.071 40.8327 100.846 40.6443 100.606C40.4558 100.366 40.337 100.142 40.2879 99.934C40.2387 99.7264 40.2562 99.5688 40.3404 99.4612C41.1773 98.7369 41.857 98.1814 42.3792 97.7946C42.8857 97.4336 43.2727 97.3091 43.5404 97.4211C44.0195 97.5926 44.4475 97.9188 44.8244 98.3996C45.1964 98.8596 45.2862 99.3316 45.0939 99.8156C45.0305 99.9183 44.8906 99.9295 44.6743 99.8491C44.6585 99.8748 44.6323 99.903 44.5956 99.9335C44.5541 99.9434 44.5254 99.9611 44.5096 99.9868C44.2851 100.15 43.9873 100.374 43.6164 100.659C43.2137 100.995 42.8215 101.329 42.4396 101.661ZM68.0832 87.0723C68.4519 86.9631 68.914 87.2483 69.4696 87.9279C70.0764 88.6392 70.2518 89.1019 69.9955 89.3161L69.8857 89.4078L55.8984 93.8046C55.264 103.163 55.4706 112.508 56.5182 121.84C56.5935 122.436 56.2179 122.47 55.3914 121.942C54.5136 121.383 53.9056 120.76 53.5675 120.072C53.4916 119.937 53.4438 119.828 53.4241 119.745C52.4721 111.464 52.2162 103.161 52.6567 94.8352L47.1786 96.5597C46.8306 96.664 46.3685 96.3788 45.7922 95.7041C45.2061 94.9879 45.0387 94.5123 45.29 94.2774C45.3266 94.2468 45.3656 94.2266 45.4072 94.2168L52.7864 91.9107C52.9226 88.8749 53.171 84.7384 53.5314 79.5012C53.5516 79.1237 53.9695 79.2221 54.7851 79.7963C55.8061 80.4973 56.408 81.1878 56.591 81.868L56.6336 82.1867C56.382 85.754 56.1906 88.6493 56.0593 90.8727L68.0832 87.0723ZM73.5479 103.602C73.7479 103.335 74.1702 103.498 74.8147 104.091C75.5462 104.773 75.8266 105.31 75.6562 105.701C75.6403 105.726 75.6245 105.752 75.6086 105.778C74.6039 107.09 73.62 107.98 72.6568 108.45C71.6937 108.919 70.8068 108.877 69.9961 108.323C69.1805 107.749 68.5737 106.621 68.1756 104.94C68.151 104.836 68.1139 104.494 68.0642 103.914C68.0096 103.313 67.9564 102.81 67.9046 102.406C67.8527 102.002 67.7686 101.693 67.6522 101.479C67.5654 101.39 67.4968 101.286 67.4466 101.166C67.3308 101.325 67.1843 101.447 67.0073 101.533C66.7571 101.68 66.5077 101.969 66.2591 102.401C66.0313 102.828 65.8529 103.231 65.7239 103.613C65.5901 103.973 65.4289 104.45 65.2404 105.043C65.0726 105.63 64.9699 105.984 64.9322 106.102C64.1311 108.09 63.4823 110.118 62.9855 112.186L63.0903 113.74C63.129 114.367 62.716 114.289 61.8513 113.507C61.3499 113.056 61.0617 112.719 60.9869 112.495C60.9465 112.417 60.9164 112.336 60.8968 112.253L60.8894 112.222C60.8119 111.802 60.7862 111.37 60.8125 110.925L58.7286 80.178C58.7035 79.7016 59.0193 79.6926 59.6759 80.151C60.3888 80.6619 60.8096 81.1432 60.9385 81.595C60.9435 81.6157 60.938 81.639 60.9221 81.6646L62.4077 103.773C62.959 102.305 63.5461 101.081 64.1689 100.101C64.8125 99.1151 65.4274 98.5639 66.0136 98.4471C66.4496 98.3439 66.8656 98.3879 67.2616 98.5791C67.6576 98.7703 68.0007 99.0618 68.2907 99.4535C68.5966 99.8196 68.8506 100.198 69.0527 100.589C69.2707 100.953 69.4471 101.328 69.582 101.713C69.6519 101.915 69.7092 102.297 69.754 102.856C69.8146 103.39 69.8623 103.915 69.8973 104.433C69.9273 104.93 70.0043 105.395 70.1282 105.826C70.2522 106.257 70.4095 106.504 70.6002 106.569C70.6832 106.549 70.7687 106.54 70.8567 106.541C70.9397 106.521 71.044 106.453 71.1697 106.335C71.3161 106.213 71.4442 106.106 71.554 106.014C71.6589 105.902 71.7901 105.761 71.9474 105.592C72.1047 105.423 72.2334 105.272 72.3334 105.139C72.4541 105.001 72.5828 104.85 72.7194 104.686C72.8718 104.496 72.9901 104.348 73.0742 104.24C73.1535 104.112 73.2431 103.981 73.343 103.848C73.443 103.714 73.5113 103.633 73.5479 103.602ZM89.5187 99.5247C89.628 99.0604 90.0359 98.5144 90.7423 97.8868C91.3705 97.2996 91.7185 97.1953 91.7862 97.5739C91.8108 97.6776 91.8013 97.8224 91.7575 98.0081C91.5936 98.7047 91.4332 99.3236 91.2764 99.865C91.1403 100.401 90.9067 101.082 90.5756 101.905C90.2603 102.703 89.9259 103.374 89.5725 103.919C89.214 104.442 88.7475 104.925 88.1727 105.368C87.6139 105.785 87.0132 106.026 86.3707 106.091C85.8529 106.126 85.3648 106.055 84.9064 105.878C84.4689 105.697 84.0739 105.418 83.7216 105.041C83.3643 104.643 83.0535 104.256 82.7892 103.88C82.5199 103.484 82.2621 102.997 82.0157 102.419C81.7645 101.821 81.5739 101.34 81.4439 100.976C81.3139 100.612 81.1642 100.165 80.9949 99.6355C79.925 96.2277 79.1681 92.6142 78.7243 88.795C78.3012 84.9709 78.0284 80.7167 77.9059 76.0322C77.8857 75.5766 78.2141 74.9727 78.891 74.2205C79.557 73.5148 79.9733 73.3285 80.1399 73.6618C80.1546 73.7241 80.1614 73.7992 80.1603 73.8871C80.303 79.0272 80.7462 84.14 81.4899 89.2254C81.7389 90.8326 81.9354 92.0796 82.0796 92.9662C82.2445 93.8479 82.5203 94.9665 82.9069 96.3219C83.2936 97.6772 83.7368 98.8548 84.2366 99.8546C84.6812 100.714 85.1592 101.39 85.6705 101.883C86.1817 102.376 86.6726 102.643 87.1429 102.685C87.634 102.722 88.0924 102.482 88.518 101.965C88.9387 101.427 89.2723 100.613 89.5187 99.5247ZM106.735 86.8657C107.164 86.545 107.396 86.5557 107.434 86.8977C107.484 87.3899 107.269 88.0547 106.788 88.8921C106.598 89.2002 106.427 89.4051 106.275 89.5067C104.583 90.7843 102.809 91.9497 100.954 93.0028C102 94.5527 102.311 96.1891 101.886 97.9121C101.481 99.6302 100.514 101.098 98.9823 102.316C98.1879 102.942 97.3346 103.319 96.4223 103.448C95.505 103.555 94.6315 103.477 93.8017 103.213C92.9719 102.949 92.2066 102.495 91.5058 101.849C90.8 101.184 90.2639 100.401 89.8974 99.5009C89.3802 98.2422 89.33 96.8729 89.7469 95.393C90.1639 93.9131 90.8234 92.4855 91.7254 91.11C91.7937 91.028 91.9079 91.001 92.0679 91.0289C92.416 90.0915 93.0148 89.3797 93.8643 88.8936C94.2806 88.7073 94.7368 88.6432 95.2328 88.7011C95.7288 88.7591 96.2287 88.9257 96.7323 89.2011C97.2311 89.4557 97.7085 89.7592 98.1646 90.1116C98.6207 90.464 99.0635 90.8524 99.4928 91.2769C102.085 90.0933 104.499 88.6229 106.735 86.8657ZM98.2309 91.6415C97.8468 91.3159 97.4093 91.1345 96.9182 91.0973C96.4221 91.0393 95.9581 91.1163 95.5259 91.3283C96.3841 91.8047 97.2858 91.9091 98.2309 91.6415ZM96.5536 100.391C97.5506 99.6949 98.4032 98.7586 99.1113 97.5825C99.8401 96.4014 100.129 95.2589 99.9769 94.1548C99.9327 93.968 99.878 93.7836 99.813 93.6017C96.8089 95.0803 94.6384 95.2653 93.3018 94.1568C92.7095 95.1739 92.2664 96.2654 91.9724 97.4311C91.8363 97.9676 91.7398 98.4398 91.683 98.8479C91.642 99.2303 91.6988 99.6553 91.8533 100.123C92.0079 100.591 92.304 100.915 92.7415 101.097C94.1335 101.512 95.4041 101.277 96.5536 100.391ZM121.004 85.7235C121.147 85.4925 121.309 85.5747 121.49 85.9702C121.762 86.5635 121.751 87.0705 121.456 87.4911C121.102 88.0352 120.709 88.4571 120.276 88.757C119.863 89.052 119.444 89.2279 119.019 89.2846C118.594 89.3414 118.183 89.3182 117.786 89.2149C117.389 89.1116 116.985 88.9332 116.574 88.6797C116.529 88.9534 116.46 89.3096 116.367 89.7482C116.273 90.1869 116.208 90.4655 116.17 90.584C116.153 90.6977 116.117 90.9145 116.061 91.2347C115.994 91.6012 115.942 91.8877 115.903 92.0942C115.885 92.2958 115.821 92.6288 115.712 93.0931C115.618 93.5318 115.539 93.8904 115.473 94.169C115.403 94.4269 115.305 94.8008 115.18 95.2908C115.055 95.7808 114.934 96.1493 114.817 96.3962C114.721 96.6382 114.592 96.9755 114.432 97.4082C114.266 97.8201 114.112 98.0976 113.971 98.2407C113.829 98.3838 113.648 98.5911 113.428 98.8626C113.228 99.1292 113.027 99.2534 112.825 99.2354C112.64 99.1917 112.42 99.1889 112.166 99.2271C111.913 99.1774 111.663 99.0501 111.418 98.8452C111.192 98.6354 111.001 98.4286 110.843 98.2249C110.706 98.0162 110.549 97.7244 110.373 97.3497C110.217 96.97 110.107 96.6892 110.042 96.5073C109.972 96.3046 109.867 96.0006 109.727 95.5952C109.603 95.1642 109.536 94.9279 109.527 94.8864C109.471 94.746 109.399 94.5329 109.309 94.2472C109.236 93.9358 109.154 93.6372 109.065 93.3515C108.996 93.0609 108.894 92.7233 108.759 92.3387C108.64 91.9284 108.52 91.5621 108.4 91.2398C108.28 90.9175 108.137 90.5897 107.97 90.2564C107.819 89.8975 107.665 89.6162 107.507 89.4124C107.344 89.1878 107.166 88.989 106.971 88.8158C106.777 88.6426 106.584 88.5677 106.392 88.5912C106.2 88.6147 105.987 88.6871 105.753 88.8083C105.622 88.905 105.449 88.9132 105.232 88.8329C104.99 88.7367 104.77 88.5916 104.57 88.3977C104.345 88.1879 104.139 87.9628 103.95 87.7224C103.762 87.482 103.645 87.2684 103.601 87.0816C103.552 86.874 103.569 86.7164 103.654 86.6088C104.055 86.3603 104.432 86.1942 104.785 86.1107C105.117 86.032 105.453 86.0621 105.793 86.2009C106.154 86.3347 106.48 86.5096 106.772 86.7254C107.08 86.9155 107.372 87.1753 107.647 87.5047C107.943 87.8293 108.193 88.1429 108.396 88.4455C108.62 88.7433 108.826 89.0563 109.013 89.3846C109.837 90.9214 110.501 92.5183 111.002 94.1752C111.052 94.3828 111.144 94.6789 111.279 95.0635C111.413 95.4481 111.503 95.7338 111.547 95.9207C112.193 94.7593 112.535 94.1193 112.572 94.0008C113.072 92.5013 113.49 90.9774 113.825 89.4293C113.886 89.1299 113.936 88.6027 113.977 87.8478C114.038 87.0879 114.104 86.535 114.176 86.1892C113.882 85.6888 113.707 85.2261 113.65 84.8011C113.609 84.3504 113.734 84.0467 114.026 83.8899C114.334 83.7075 114.665 83.7168 115.019 83.9178C115.395 84.114 115.71 84.3792 115.964 84.7136C116.219 85.0479 116.403 85.3659 116.519 85.6674C116.654 86.052 116.729 86.4618 116.744 86.8966C117.436 87.0398 118.228 87.0057 119.12 86.7944C120.034 86.5781 120.662 86.2212 121.004 85.7235ZM131.708 86.9381C132.246 86.1531 132.718 85.833 133.125 85.9778C133.507 86.1068 133.556 86.5007 133.273 87.1595L132.979 87.7224C132.557 88.3484 132.128 88.9433 131.692 89.507C131.276 90.0659 130.742 90.7293 130.091 91.4973C129.435 92.2446 128.773 92.8728 128.104 93.3819C127.435 93.891 126.729 94.3323 125.984 94.7059C125.234 95.0587 124.477 95.1942 123.712 95.1122C122.943 95.0094 122.207 94.6794 121.505 94.1221C120.824 93.5599 120.364 92.8686 120.126 92.048C119.888 91.2275 119.849 90.3706 120.011 89.4774C120.172 88.5843 120.402 87.7515 120.702 86.979C121.017 86.1809 121.404 85.4096 121.864 84.665C122.498 83.6381 123.285 82.7061 124.227 81.8693C125.697 80.5785 126.568 80.6903 126.839 82.2047C127.046 83.4491 126.782 84.9257 126.046 86.6345C125.306 88.3224 124.367 89.7725 123.229 90.9846C123.54 91.2835 123.882 91.5206 124.252 91.696C126.496 92.6554 128.981 91.0695 131.708 86.9381ZM122.601 86.5293C122.212 87.4765 122.137 88.4588 122.378 89.476C122.645 89.2154 123.016 88.7 123.492 87.9298C123.967 87.1596 124.331 86.3828 124.584 85.5994C124.853 84.7904 124.826 84.3036 124.502 84.1392C124.28 84.0381 124.025 84.1643 123.736 84.5177C123.447 84.8711 123.215 85.233 123.04 85.6034C122.859 85.953 122.713 86.2616 122.601 86.5293ZM138.707 91.5949C138.692 92.3657 138.64 93.2111 138.551 94.131C138.462 95.051 138.34 95.9679 138.183 96.8819C138.053 97.8116 137.91 98.6895 137.754 99.5155L135.73 99.9947C135.751 99.1567 135.747 98.2589 135.718 97.3012C135.714 96.3594 135.692 95.4329 135.651 94.5217C135.606 93.5897 135.549 92.7481 135.481 91.997L138.408 91.304L138.707 91.5949ZM178.336 72.084C179.9 73.599 181.051 75.3546 181.786 77.3508C182.538 79.3213 182.854 81.3071 182.736 83.3082C182.639 85.3043 182.162 87.2698 181.304 89.2047C180.452 91.1604 179.255 92.9125 177.715 94.4611C175.692 96.4746 173.238 97.8229 170.353 98.5061C167.472 99.21 164.587 99.2024 161.699 98.4833C158.835 97.78 156.355 96.4709 154.258 94.5559C152.666 93.1131 151.517 91.4998 150.81 89.7161C150.098 87.9116 149.786 86.1329 149.875 84.3798C149.98 82.6011 150.37 80.7768 151.046 78.9069C151.737 77.0113 152.584 75.2652 153.587 73.6685C154.585 72.051 155.728 70.487 157.014 68.9766C157.671 68.2294 158.094 68.0743 158.285 68.5113C158.472 68.9276 158.382 69.475 158.017 70.1534L157.717 70.5533C156.687 71.7616 155.784 72.9948 155.008 74.2528C154.232 75.5109 153.578 76.8714 153.048 78.3343C152.533 79.7715 152.241 81.1779 152.172 82.5535C152.098 83.9083 152.309 85.3054 152.803 86.745C153.313 88.1588 154.132 89.4885 155.26 90.7342C157.079 92.5835 159.202 93.9554 161.628 94.8499C164.058 95.7651 166.564 96.1147 169.143 95.8985C171.339 95.7294 173.311 95.1201 175.057 94.0708C176.83 93.0374 178.213 91.6136 179.209 89.7995C180.209 88.0061 180.677 85.999 180.611 83.7783C180.494 79.4872 177.909 75.6051 172.856 72.1319C168.702 69.4979 164.334 67.2985 159.751 65.5336C159.288 65.3363 158.453 65.0077 157.248 64.5476C156.043 64.0875 155.099 63.7083 154.414 63.41C153.73 63.1117 152.93 62.6981 152.016 62.1692C151.096 61.6196 150.338 61.0538 149.739 60.472C148.181 58.8898 147.396 57.1025 147.385 55.1102C147.369 53.0971 147.84 51.1548 148.8 49.2833C149.76 47.4118 151.016 45.8648 152.569 44.6423C155.098 42.6404 157.611 41.7274 160.108 41.9035C162.621 42.054 164.915 42.9468 166.991 44.582C169.082 46.1915 170.768 48.3135 172.049 50.9478C172.261 51.3799 172.049 52.0111 171.412 52.8414C170.808 53.6204 170.343 53.9277 170.019 53.7632C169.963 53.7108 169.917 53.6559 169.882 53.5985C169.291 52.401 168.614 51.3007 167.851 50.2976C167.103 49.2689 166.237 48.3448 165.254 47.5253C164.266 46.685 163.234 46.0305 162.158 45.5617C161.083 45.0929 159.898 44.8581 158.604 44.8575C157.311 44.8568 156.016 45.1304 154.721 45.6783C153.67 46.1463 152.754 46.7688 151.973 47.5455C151.193 48.3223 150.628 49.1794 150.28 50.1168C149.932 51.0542 149.755 52.017 149.747 53.0053C149.756 53.9678 150.016 54.9258 150.526 55.8791C151.032 56.8116 151.772 57.6229 152.747 58.313C154.157 59.3603 155.803 60.3408 157.685 61.2543C159.563 62.1471 161.385 62.9435 163.151 63.6434C164.912 64.3226 166.681 65.0329 168.457 65.7744C170.232 66.5158 171.993 67.4253 173.739 68.5027C175.48 69.5594 177.012 70.7531 178.336 72.084ZM202.146 70.7547C202.382 70.918 202.438 71.2007 202.314 71.6028C202.19 72.0048 202.03 72.3495 201.835 72.6369C201.819 72.6626 201.788 72.7139 201.74 72.7909C198.525 77.4544 196.263 78.5929 194.953 76.2066C194.613 75.6073 194.344 74.9804 194.146 74.3259C193.963 74.8515 193.765 75.3587 193.552 75.8476C193.069 76.8609 192.482 77.8109 191.793 78.6975C191.104 79.584 190.363 80.1103 189.569 80.2763C188.983 80.3932 188.339 80.217 187.636 79.7476C186.948 79.2526 186.355 78.6916 185.856 78.0644C185.086 77.1285 184.644 76.0493 184.53 74.8267C184.432 73.5784 184.532 72.3818 184.831 71.2368C185.151 70.0868 185.633 68.9752 186.278 67.9018C187.319 66.1865 188.365 65.2811 189.416 65.1856C190.385 65.1097 191.578 65.7482 192.994 67.1009C193.027 66.5011 193.035 65.9294 193.015 65.3858C192.998 65.1269 193.305 65.2187 193.936 65.6612C194.782 66.272 195.217 66.8156 195.243 67.292C195.227 67.3177 195.221 67.3409 195.226 67.3616C195.231 67.3824 195.233 67.3928 195.233 67.3928L195.241 67.4239C195.724 69.3704 196.167 70.9645 196.57 72.2063C196.58 72.2478 196.62 72.3699 196.69 72.5726C196.76 72.7752 196.807 72.9285 196.832 73.0323C196.872 73.1104 196.925 73.2404 196.99 73.4223C197.076 73.5993 197.154 73.7452 197.225 73.8599C197.312 73.949 197.412 74.046 197.524 74.1509C197.632 74.235 197.745 74.2959 197.863 74.3336C198.044 74.3566 198.199 74.3637 198.329 74.355C198.479 74.3413 198.635 74.2605 198.798 74.1124C198.981 73.9595 199.124 73.8268 199.229 73.7142C199.355 73.5968 199.492 73.4329 199.639 73.2226C199.807 73.0074 199.931 72.8356 200.01 72.7072C200.11 72.5739 200.216 72.4174 200.327 72.2377C200.458 72.0531 200.548 71.9222 200.596 71.8452C201.244 70.8805 201.761 70.517 202.146 70.7547ZM189.004 77.0559C191.133 75.2145 192.421 72.3665 192.868 68.5119C192.76 68.4278 192.663 68.3412 192.576 68.2522C192.147 67.8277 191.704 67.6255 191.249 67.6457C190.788 67.6451 190.372 67.7874 190.001 68.0725C189.63 68.3576 189.263 68.7515 188.9 69.254C188.552 69.7309 188.267 70.1931 188.044 70.6405C187.821 71.0879 187.63 71.5279 187.469 71.9605C187.047 73.0471 186.814 74.286 186.771 75.6774C186.719 77.3119 187.119 77.9844 187.972 77.695C188.278 77.6005 188.622 77.3875 189.004 77.0559ZM212.579 61.6419C213.012 61.342 213.247 61.363 213.284 61.705C213.356 62.1923 213.138 62.8468 212.631 63.6683C212.441 63.9764 212.262 64.1941 212.095 64.3214C210.243 65.5712 208.467 66.9124 206.767 68.3452C207.294 68.8123 207.641 69.3988 207.808 70.1046C207.991 70.7848 207.975 71.4573 207.76 72.1221C207.551 73.0923 207.143 74.0548 206.536 75.0097C205.924 75.9438 205.154 76.7181 204.225 77.3326C203.312 77.9214 202.311 78.0926 201.223 77.8461C200.573 77.6931 200.131 77.403 199.899 76.9758C199.64 76.5327 199.585 76.0198 199.732 75.4369C199.853 74.8382 200.02 74.2943 200.233 73.8054C200.462 73.2908 200.719 72.8025 201.004 72.3403C201.548 71.4882 202.145 70.6781 202.797 69.91C201.796 69.2041 201.151 68.4691 200.86 67.7048C200.591 66.9356 200.612 65.8673 200.924 64.5C201.298 63.1179 201.963 61.8972 202.918 60.8381C203.873 59.7789 205.029 59.012 206.385 58.5374C206.869 58.3571 207.018 58.6177 206.833 59.3191C206.622 60.0927 206.257 60.7272 205.738 61.2226C205.597 61.3657 205.464 61.452 205.339 61.4815C204.243 61.8507 203.51 62.5505 203.14 63.5807C202.765 64.5902 202.984 65.514 203.796 66.3521C204.236 66.7302 204.718 67.0544 205.243 67.3249C207.556 65.2426 210.001 63.3483 212.579 61.6419ZM204.165 74.7161C204.809 74.4758 205.255 74.1839 205.503 73.8403C205.75 73.4967 205.799 73.1454 205.648 72.7865C205.513 72.4019 205.308 72.0449 205.033 71.7154C204.753 71.3652 204.412 71.0402 204.013 70.7402C202.672 72.0223 201.995 73.0047 201.981 73.6876C201.959 74.241 202.174 74.5955 202.627 74.7512C203.081 74.907 203.593 74.8953 204.165 74.7161ZM224.743 67.8052C224.943 67.5386 225.365 67.7017 226.01 68.2945C226.741 68.9763 227.022 69.5128 226.851 69.9039C226.835 69.9296 226.82 69.9553 226.804 69.9809C225.799 71.2931 224.815 72.1837 223.852 72.6529C222.889 73.1221 222.002 73.0799 221.191 72.5265C220.376 71.9523 219.769 70.8244 219.371 69.1429C219.346 69.0391 219.309 68.6971 219.259 68.1169C219.205 67.516 219.152 67.0134 219.1 66.6092C219.048 66.2049 218.964 65.896 218.847 65.6824C218.761 65.5933 218.692 65.489 218.642 65.3693C218.526 65.5283 218.38 65.6506 218.203 65.7364C217.952 65.8833 217.703 66.1726 217.454 66.6041C217.226 67.0308 217.048 67.4347 216.919 67.816C216.785 68.1766 216.624 68.6532 216.436 69.2459C216.268 69.8337 216.165 70.1869 216.127 70.3054C215.326 72.2928 214.677 74.3208 214.181 76.3896L214.285 77.9432C214.324 78.5698 213.911 78.4922 213.047 77.7104C212.545 77.2591 212.257 76.9218 212.182 76.6983C212.142 76.6202 212.112 76.5396 212.092 76.4566L212.085 76.4255C212.007 76.0054 211.981 75.573 212.008 75.1283L209.924 44.3812C209.899 43.9049 210.214 43.8959 210.871 44.3543C211.584 44.8651 212.005 45.3464 212.134 45.7982C212.139 45.819 212.133 45.8422 212.117 45.8679L213.603 67.9764C214.154 66.5085 214.741 65.2843 215.364 64.3038C216.008 63.3183 216.623 62.7672 217.209 62.6503C217.645 62.5471 218.061 62.5911 218.457 62.7824C218.853 62.9736 219.196 63.2651 219.486 63.6568C219.792 64.0228 220.046 64.4011 220.248 64.7918C220.466 65.1567 220.642 65.5315 220.777 65.9161C220.847 66.1187 220.904 66.4998 220.949 67.0592C221.01 67.5929 221.058 68.1187 221.092 68.6366C221.122 69.1337 221.199 69.5978 221.323 70.0289C221.447 70.4599 221.605 70.7076 221.795 70.7721C221.878 70.7525 221.964 70.7432 222.052 70.7443C222.135 70.7246 222.239 70.6561 222.365 70.5386C222.511 70.4163 222.639 70.3092 222.749 70.2174C222.854 70.1049 222.985 69.9643 223.143 69.7955C223.3 69.6267 223.429 69.4756 223.529 69.3423C223.649 69.2041 223.778 69.0531 223.915 68.8892C224.067 68.6997 224.185 68.5511 224.269 68.4435C224.349 68.3151 224.438 68.1843 224.538 68.051C224.638 67.9177 224.706 67.8358 224.743 67.8052ZM241.8 61.3663C242.036 61.5296 242.092 61.8124 241.968 62.2144C241.844 62.6165 241.684 62.9612 241.489 63.2485C241.473 63.2742 241.441 63.3255 241.394 63.4026C238.179 68.066 235.917 69.2045 234.606 66.8182C234.267 66.2189 233.998 65.592 233.799 64.9376C233.617 65.4631 233.419 65.9703 233.206 66.4592C232.722 67.4726 232.136 68.4225 231.447 69.3091C230.758 70.1957 230.017 70.722 229.223 70.888C228.637 71.0048 227.992 70.8286 227.289 70.3593C226.602 69.8643 226.009 69.3032 225.51 68.676C224.74 67.7402 224.298 66.6609 224.184 65.4383C224.086 64.19 224.186 62.9934 224.485 61.8484C224.805 60.6985 225.287 59.5868 225.932 58.5134C226.972 56.7981 228.019 55.8927 229.07 55.7972C230.039 55.7214 231.231 56.3598 232.648 57.7125C232.681 57.1127 232.688 56.541 232.669 55.9974C232.652 55.7385 232.958 55.8303 233.589 56.2728C234.436 56.8837 234.871 57.4273 234.896 57.9036C234.88 57.9293 234.875 57.9525 234.88 57.9733C234.885 57.994 234.887 58.0044 234.887 58.0044L234.895 58.0356C235.377 59.982 235.821 61.5761 236.224 62.8179C236.234 62.8594 236.274 62.9815 236.344 63.1842C236.414 63.3869 236.461 63.5401 236.486 63.6439C236.526 63.722 236.579 63.852 236.644 64.034C236.729 64.211 236.808 64.3568 236.879 64.4716C236.966 64.5606 237.065 64.6576 237.178 64.7625C237.285 64.8466 237.399 64.9075 237.517 64.9452C237.698 64.9682 237.853 64.9753 237.983 64.9666C238.133 64.9529 238.289 64.8721 238.451 64.7241C238.634 64.5711 238.778 64.4384 238.883 64.3259C239.009 64.2084 239.145 64.0445 239.293 63.8342C239.461 63.619 239.585 63.4472 239.664 63.3188C239.764 63.1855 239.87 63.029 239.98 62.8493C240.112 62.6647 240.202 62.5339 240.249 62.4568C240.898 61.4921 241.415 61.1286 241.8 61.3663ZM228.658 67.6675C230.787 65.8262 232.075 62.9782 232.521 59.1236C232.414 59.0394 232.317 58.9528 232.23 58.8638C231.8 58.4393 231.358 58.2371 230.902 58.2573C230.442 58.2567 230.026 58.399 229.655 58.6841C229.284 58.9693 228.917 59.3631 228.554 59.8657C228.206 60.3426 227.921 60.8047 227.698 61.2521C227.475 61.6995 227.283 62.1395 227.123 62.5722C226.7 63.6587 226.468 64.8977 226.424 66.2891C226.373 67.9236 226.773 68.5961 227.625 68.3066C227.932 68.2121 228.276 67.9991 228.658 67.6675ZM254.365 43.8234C255.486 43.558 256.488 43.5291 257.37 43.7368C258.268 43.9187 259.019 44.311 259.622 44.9136C260.225 45.5163 260.647 46.3262 260.888 47.3434C261.197 48.6512 261.035 49.8626 260.4 50.9775C259.786 52.0875 258.924 53.1686 257.814 54.2207L265.195 58.5897C265.582 57.8183 265.843 56.9781 265.979 56.0691C266.13 55.1344 266.205 54.1522 266.202 53.1225L268.974 52.4663C268.956 53.8736 268.833 55.207 268.605 56.4668C268.377 57.7265 267.97 58.8753 267.382 59.9132L272.976 63.2586L269.27 64.1359L265.942 62.1616C265.547 62.7155 265.124 63.2432 264.672 63.7447C264.237 64.2205 263.737 64.6566 263.173 65.0532C262.61 65.4498 261.982 65.8067 261.289 66.1241C260.618 66.4365 259.846 66.6959 258.974 66.9023C257.542 67.2415 256.242 67.308 255.076 67.102C253.925 66.8703 252.95 66.3665 252.153 65.5907C251.376 64.81 250.833 63.7657 250.523 62.4579C250.272 61.3991 250.243 60.4415 250.435 59.5849C250.647 58.7234 251.046 57.9057 251.63 57.1316C252.214 56.3576 252.927 55.5748 253.77 54.7833C253.216 54.3883 252.668 53.9701 252.125 53.5286C251.582 53.0872 251.102 52.587 250.685 52.0281C250.262 51.4485 249.963 50.785 249.786 50.0376C249.545 49.0204 249.567 48.0944 249.852 47.2597C250.136 46.425 250.66 45.7201 251.423 45.1449C252.201 44.544 253.182 44.1035 254.365 43.8234ZM255.826 56.1052C255.182 56.7181 254.644 57.3168 254.213 57.9013C253.797 58.4601 253.508 59.0438 253.345 59.6523C253.182 60.2609 253.189 60.9388 253.366 61.6862C253.636 62.828 254.236 63.6504 255.167 64.1537C256.097 64.6569 257.206 64.7561 258.493 64.4514C259.821 64.1368 260.912 63.6485 261.763 62.9865C262.615 62.3244 263.291 61.6162 263.792 60.8618L255.826 56.1052ZM254.803 46.0875C253.931 46.2939 253.269 46.6919 252.816 47.2813C252.385 47.8658 252.265 48.5628 252.456 49.3724C252.633 50.1198 252.995 50.7685 253.542 51.3187C254.084 51.8481 254.819 52.4084 255.749 52.9995C256.806 52.0037 257.521 51.133 257.892 50.3873C258.28 49.616 258.375 48.8152 258.179 47.9848C258.002 47.2374 257.608 46.684 256.996 46.3245C256.385 45.965 255.654 45.886 254.803 46.0875ZM283.88 21.4784C284.914 20.7514 285.812 20.2865 286.575 20.0839C287.359 19.8764 287.982 19.9152 288.444 20.2004C288.927 20.4807 289.341 20.9309 289.685 21.551C290.05 22.1661 290.328 22.9225 290.518 23.82C290.725 24.6919 290.927 25.6414 291.127 26.6685C293.841 41.7447 293.883 56.8288 291.252 71.921C291.163 72.3804 290.789 72.9294 290.129 73.568C289.469 74.2065 289.098 74.3054 289.015 73.8645C288.991 73.7607 288.99 73.6184 289.013 73.4376C290.887 62.1858 291.311 50.8719 290.283 39.4958C290.234 38.9157 290.168 37.9886 290.085 36.7147C290.019 35.415 289.947 34.3249 289.87 33.4443C289.788 32.5429 289.677 31.5169 289.536 30.3664C289.395 29.2159 289.188 28.1578 288.916 27.1919C288.664 26.2211 288.349 25.353 287.97 24.5877C287.784 24.1714 287.574 23.8376 287.339 23.5863C287.12 23.3093 286.881 23.1355 286.623 23.065C286.361 22.9738 286.1 22.9369 285.841 22.9544C285.598 22.9461 285.32 23.0229 285.007 23.1845C284.69 23.3255 284.39 23.4951 284.108 23.6933C283.822 23.8709 283.493 24.1022 283.122 24.3873C280.414 26.563 278.044 29.0533 276.012 31.8584C275.391 32.663 274.983 32.8364 274.787 32.3786C274.6 31.9623 274.688 31.4046 275.048 30.7054C275.123 30.5562 275.212 30.4254 275.317 30.3129C277.744 26.9539 280.599 24.0091 283.88 21.4784ZM309.091 44.744C309.106 44.3458 309.205 44.1142 309.386 44.0492C309.651 43.9645 309.765 44.398 309.727 45.3496C309.694 46.7825 309.345 47.9502 308.682 48.8526C308.014 49.7343 307.084 50.0202 305.893 49.7104C305.496 49.6071 305.138 49.4396 304.82 49.208C304.502 48.9763 304.239 48.7428 304.029 48.5073C303.82 48.2718 303.602 47.9509 303.374 47.5444C303.167 47.133 303.011 46.7973 302.905 46.5373C302.795 46.2565 302.637 45.8664 302.431 45.3671C302.241 44.8421 302.106 44.4575 302.026 44.2133C301.879 44.4236 301.792 44.5648 301.765 44.6369C301.398 45.4033 300.882 46.7422 300.217 48.6537C299.502 50.7301 298.822 52.8095 298.175 54.8919C298.04 55.3404 297.623 55.198 296.923 54.4648C296.289 53.8256 295.964 53.3326 295.948 52.9857L296.079 38.1236C296.062 37.8646 296.369 37.9564 297 38.399C297.846 39.0098 298.271 39.5559 298.275 40.0371L298.217 45.9043C298.461 45.0794 298.658 44.4299 298.808 43.9557C298.975 43.4559 299.215 42.8949 299.528 42.2727C299.857 41.6248 300.175 41.2096 300.483 41.0272C300.774 40.8704 301.065 40.8456 301.353 40.9527C301.662 41.0549 301.942 41.2628 302.191 41.5764C302.462 41.885 302.673 42.1749 302.825 42.4458C302.997 42.7119 303.151 42.9932 303.287 43.2899C303.383 43.5084 303.556 43.9168 303.808 44.515C304.059 45.1132 304.26 45.5918 304.411 45.9507C304.582 46.3047 304.826 46.6855 305.142 47.093C305.457 47.5006 305.775 47.7762 306.094 47.9199C306.943 48.2669 307.65 48.0558 308.213 47.2867C308.797 46.5126 309.089 45.6651 309.091 44.744ZM322.136 41.6554C322.152 41.2571 322.25 41.0255 322.432 40.9605C322.697 40.8758 322.811 41.3093 322.773 42.261C322.739 43.6939 322.391 44.8616 321.728 45.764C321.06 46.6456 320.13 46.9315 318.938 46.6217C318.541 46.5184 318.184 46.351 317.866 46.1193C317.548 45.8877 317.284 45.6541 317.075 45.4186C316.866 45.1832 316.647 44.8622 316.42 44.4557C316.213 44.0444 316.056 43.7087 315.951 43.4486C315.841 43.1678 315.683 42.7777 315.477 42.2784C315.287 41.7534 315.152 41.3688 315.072 41.1246C314.924 41.3349 314.837 41.4761 314.81 41.5483C314.444 42.3147 313.928 43.6536 313.262 45.565C312.548 47.6414 311.868 49.7208 311.221 51.8032C311.086 52.2517 310.668 52.1094 309.968 51.3762C309.335 50.737 309.01 50.2439 308.993 49.897L309.125 35.0349C309.107 34.776 309.414 34.8678 310.045 35.3103C310.891 35.9211 311.317 36.4672 311.321 36.9485L311.263 42.8156C311.506 41.9908 311.703 41.3412 311.854 40.8671C312.021 40.3672 312.261 39.8062 312.574 39.184C312.903 38.5361 313.221 38.121 313.528 37.9385C313.82 37.7818 314.11 37.7569 314.399 37.864C314.708 37.9662 314.987 38.1741 315.237 38.4877C315.507 38.7964 315.718 39.0862 315.87 39.3572C316.043 39.6232 316.197 39.9046 316.333 40.2012C316.429 40.4197 316.602 40.8281 316.853 41.4263C317.105 42.0245 317.306 42.5031 317.456 42.862C317.628 43.216 317.871 43.5968 318.187 44.0044C318.503 44.4119 318.82 44.6876 319.139 44.8313C319.989 45.1782 320.695 44.9671 321.258 44.198C321.842 43.424 322.135 42.5764 322.136 41.6554ZM339.322 38.2769C339.558 38.4403 339.614 38.723 339.49 39.1251C339.366 39.5271 339.207 39.8718 339.012 40.1592C338.996 40.1848 338.964 40.2362 338.917 40.3132C335.702 44.9766 333.439 46.1152 332.129 43.7289C331.79 43.1296 331.521 42.5027 331.322 41.8482C331.14 42.3738 330.942 42.881 330.729 43.3699C330.245 44.3832 329.659 45.3332 328.97 46.2197C328.281 47.1063 327.54 47.6326 326.746 47.7986C326.16 47.9155 325.515 47.7393 324.812 47.2699C324.125 46.7749 323.532 46.2138 323.032 45.5867C322.263 44.6508 321.821 43.5716 321.707 42.349C321.608 41.1007 321.709 39.904 322.008 38.759C322.327 37.6091 322.81 36.4975 323.454 35.4241C324.495 33.7088 325.541 32.8034 326.593 32.7079C327.562 32.632 328.754 33.2705 330.17 34.6232C330.204 34.0234 330.211 33.4517 330.192 32.9081C330.174 32.6492 330.481 32.741 331.112 33.1835C331.958 33.7943 332.394 34.3379 332.419 34.8143C332.403 34.84 332.398 34.8632 332.403 34.8839C332.408 34.9047 332.41 34.9151 332.41 34.9151L332.417 34.9462C332.9 36.8927 333.343 38.4868 333.747 39.7285C333.757 39.7701 333.797 39.8922 333.867 40.0948C333.936 40.2975 333.984 40.4508 334.008 40.5546C334.049 40.6327 334.101 40.7627 334.166 40.9446C334.252 41.1216 334.33 41.2675 334.402 41.3822C334.488 41.4713 334.588 41.5682 334.701 41.6731C334.808 41.7573 334.921 41.8182 335.04 41.8559C335.221 41.8789 335.376 41.886 335.505 41.8772C335.655 41.8636 335.812 41.7828 335.974 41.6347C336.157 41.4818 336.301 41.349 336.406 41.2365C336.532 41.1191 336.668 40.9552 336.816 40.7449C336.984 40.5297 337.108 40.3579 337.187 40.2295C337.287 40.0962 337.392 39.9397 337.503 39.76C337.635 39.5753 337.724 39.4445 337.772 39.3675C338.421 38.4028 338.937 38.0393 339.322 38.2769ZM326.181 44.5782C328.31 42.7368 329.598 39.8888 330.044 36.0342C329.937 35.9501 329.839 35.8635 329.752 35.7745C329.323 35.35 328.881 35.1478 328.425 35.168C327.965 35.1674 327.549 35.3097 327.178 35.5948C326.807 35.8799 326.44 36.2738 326.076 36.7763C325.729 37.2532 325.444 37.7154 325.221 38.1628C324.998 38.6101 324.806 39.0502 324.645 39.4828C324.223 40.5694 323.99 41.8083 323.947 43.1997C323.896 44.8342 324.296 45.5067 325.148 45.2173C325.455 45.1228 325.799 44.9098 326.181 44.5782Z" fill="#B50015"/>
</svg>
